<svg xmlns="http://www.w3.org/2000/svg" xmlns:xlink="http://www.w3.org/1999/xlink" width="500" zoomAndPan="magnify" viewBox="0 0 375 374.999991" height="500" preserveAspectRatio="xMidYMid meet" version="1.0"><defs><g/></defs><g fill="#ff00ff" fill-opacity="1"><g transform="translate(57.073678, 196.543025)"><g><path d="M 23.6875 -18.265625 L 26.40625 0 L 2.53125 0 L 2.53125 -63.3125 L 24.875 -63.3125 L 22.703125 -33.640625 L 23.875 -33.640625 L 29.9375 -63.3125 L 62.125 -63.3125 L 29.390625 -32.28125 L 30.390625 -31.109375 C 31.171875 -32.015625 32.101562 -33.023438 33.1875 -34.140625 C 34.269531 -35.253906 35.550781 -36.21875 37.03125 -37.03125 C 38.507812 -37.84375 40.179688 -38.25 42.046875 -38.25 C 46.992188 -38.25 51.035156 -36.632812 54.171875 -33.40625 C 57.304688 -30.1875 59.476562 -25.695312 60.6875 -19.9375 C 61.894531 -14.175781 62.070312 -7.53125 61.21875 0 L 35.09375 0 C 35.875 -3.070312 36.429688 -6.265625 36.765625 -9.578125 C 37.097656 -12.898438 37.097656 -15.992188 36.765625 -18.859375 C 36.429688 -21.722656 35.691406 -24.023438 34.546875 -25.765625 C 33.398438 -27.515625 31.742188 -28.390625 29.578125 -28.390625 C 27.160156 -28.390625 25.453125 -27.410156 24.453125 -25.453125 C 23.460938 -23.492188 23.207031 -21.097656 23.6875 -18.265625 Z M 23.6875 -18.265625 "/></g></g></g><g fill="#ff00ff" fill-opacity="1"><g transform="translate(120.284418, 196.543025)"><g><path d="M 34.453125 1.359375 C 28.066406 1.359375 22.398438 0.09375 17.453125 -2.4375 C 12.503906 -4.96875 8.628906 -8.691406 5.828125 -13.609375 C 3.023438 -18.523438 1.625 -24.570312 1.625 -31.75 C 1.625 -38.914062 3.023438 -44.941406 5.828125 -49.828125 C 8.628906 -54.710938 12.503906 -58.40625 17.453125 -60.90625 C 22.398438 -63.40625 28.066406 -64.65625 34.453125 -64.65625 C 40.847656 -64.65625 46.515625 -63.40625 51.453125 -60.90625 C 56.398438 -58.40625 60.273438 -54.710938 63.078125 -49.828125 C 65.878906 -44.941406 67.28125 -38.914062 67.28125 -31.75 C 67.28125 -24.570312 65.878906 -18.523438 63.078125 -13.609375 C 60.273438 -8.691406 56.398438 -4.96875 51.453125 -2.4375 C 46.515625 0.09375 40.847656 1.359375 34.453125 1.359375 Z M 34.453125 -25.5 C 38.078125 -25.5 40.988281 -26.039062 43.1875 -27.125 C 45.382812 -28.21875 46.484375 -29.726562 46.484375 -31.65625 C 46.484375 -33.582031 45.382812 -35.085938 43.1875 -36.171875 C 40.988281 -37.253906 38.078125 -37.796875 34.453125 -37.796875 C 30.773438 -37.796875 27.847656 -37.253906 25.671875 -36.171875 C 23.503906 -35.085938 22.421875 -33.582031 22.421875 -31.65625 C 22.421875 -29.726562 23.503906 -28.21875 25.671875 -27.125 C 27.847656 -26.039062 30.773438 -25.5 34.453125 -25.5 Z M 34.453125 -25.5 "/></g></g></g><g fill="#ff00ff" fill-opacity="1"><g transform="translate(189.19226, 196.543025)"><g><path d="M 23.6875 -18.265625 L 26.40625 0 L 2.53125 0 L 2.53125 -63.3125 L 24.875 -63.3125 L 22.703125 -33.640625 L 23.875 -33.640625 L 29.9375 -63.3125 L 62.125 -63.3125 L 29.390625 -32.28125 L 30.390625 -31.109375 C 31.171875 -32.015625 32.101562 -33.023438 33.1875 -34.140625 C 34.269531 -35.253906 35.550781 -36.21875 37.03125 -37.03125 C 38.507812 -37.84375 40.179688 -38.25 42.046875 -38.25 C 46.992188 -38.25 51.035156 -36.632812 54.171875 -33.40625 C 57.304688 -30.1875 59.476562 -25.695312 60.6875 -19.9375 C 61.894531 -14.175781 62.070312 -7.53125 61.21875 0 L 35.09375 0 C 35.875 -3.070312 36.429688 -6.265625 36.765625 -9.578125 C 37.097656 -12.898438 37.097656 -15.992188 36.765625 -18.859375 C 36.429688 -21.722656 35.691406 -24.023438 34.546875 -25.765625 C 33.398438 -27.515625 31.742188 -28.390625 29.578125 -28.390625 C 27.160156 -28.390625 25.453125 -27.410156 24.453125 -25.453125 C 23.460938 -23.492188 23.207031 -21.097656 23.6875 -18.265625 Z M 23.6875 -18.265625 "/></g></g></g><g fill="#ff00ff" fill-opacity="1"><g transform="translate(252.403, 196.543025)"><g><path d="M 34.453125 1.359375 C 28.066406 1.359375 22.398438 0.09375 17.453125 -2.4375 C 12.503906 -4.96875 8.628906 -8.691406 5.828125 -13.609375 C 3.023438 -18.523438 1.625 -24.570312 1.625 -31.75 C 1.625 -38.914062 3.023438 -44.941406 5.828125 -49.828125 C 8.628906 -54.710938 12.503906 -58.40625 17.453125 -60.90625 C 22.398438 -63.40625 28.066406 -64.65625 34.453125 -64.65625 C 40.847656 -64.65625 46.515625 -63.40625 51.453125 -60.90625 C 56.398438 -58.40625 60.273438 -54.710938 63.078125 -49.828125 C 65.878906 -44.941406 67.28125 -38.914062 67.28125 -31.75 C 67.28125 -24.570312 65.878906 -18.523438 63.078125 -13.609375 C 60.273438 -8.691406 56.398438 -4.96875 51.453125 -2.4375 C 46.515625 0.09375 40.847656 1.359375 34.453125 1.359375 Z M 34.453125 -25.5 C 38.078125 -25.5 40.988281 -26.039062 43.1875 -27.125 C 45.382812 -28.21875 46.484375 -29.726562 46.484375 -31.65625 C 46.484375 -33.582031 45.382812 -35.085938 43.1875 -36.171875 C 40.988281 -37.253906 38.078125 -37.796875 34.453125 -37.796875 C 30.773438 -37.796875 27.847656 -37.253906 25.671875 -36.171875 C 23.503906 -35.085938 22.421875 -33.582031 22.421875 -31.65625 C 22.421875 -29.726562 23.503906 -28.21875 25.671875 -27.125 C 27.847656 -26.039062 30.773438 -25.5 34.453125 -25.5 Z M 34.453125 -25.5 "/></g></g></g><g fill="#00ffff" fill-opacity="1"><g transform="translate(53.682543, 196.543025)"><g><path d="M 23.6875 -18.265625 L 26.40625 0 L 2.53125 0 L 2.53125 -63.3125 L 24.875 -63.3125 L 22.703125 -33.640625 L 23.875 -33.640625 L 29.9375 -63.3125 L 62.125 -63.3125 L 29.390625 -32.28125 L 30.390625 -31.109375 C 31.171875 -32.015625 32.101562 -33.023438 33.1875 -34.140625 C 34.269531 -35.253906 35.550781 -36.21875 37.03125 -37.03125 C 38.507812 -37.84375 40.179688 -38.25 42.046875 -38.25 C 46.992188 -38.25 51.035156 -36.632812 54.171875 -33.40625 C 57.304688 -30.1875 59.476562 -25.695312 60.6875 -19.9375 C 61.894531 -14.175781 62.070312 -7.53125 61.21875 0 L 35.09375 0 C 35.875 -3.070312 36.429688 -6.265625 36.765625 -9.578125 C 37.097656 -12.898438 37.097656 -15.992188 36.765625 -18.859375 C 36.429688 -21.722656 35.691406 -24.023438 34.546875 -25.765625 C 33.398438 -27.515625 31.742188 -28.390625 29.578125 -28.390625 C 27.160156 -28.390625 25.453125 -27.410156 24.453125 -25.453125 C 23.460938 -23.492188 23.207031 -21.097656 23.6875 -18.265625 Z M 23.6875 -18.265625 "/></g></g></g><g fill="#00ffff" fill-opacity="1"><g transform="translate(116.893283, 196.543025)"><g><path d="M 34.453125 1.359375 C 28.066406 1.359375 22.398438 0.09375 17.453125 -2.4375 C 12.503906 -4.96875 8.628906 -8.691406 5.828125 -13.609375 C 3.023438 -18.523438 1.625 -24.570312 1.625 -31.75 C 1.625 -38.914062 3.023438 -44.941406 5.828125 -49.828125 C 8.628906 -54.710938 12.503906 -58.40625 17.453125 -60.90625 C 22.398438 -63.40625 28.066406 -64.65625 34.453125 -64.65625 C 40.847656 -64.65625 46.515625 -63.40625 51.453125 -60.90625 C 56.398438 -58.40625 60.273438 -54.710938 63.078125 -49.828125 C 65.878906 -44.941406 67.28125 -38.914062 67.28125 -31.75 C 67.28125 -24.570312 65.878906 -18.523438 63.078125 -13.609375 C 60.273438 -8.691406 56.398438 -4.96875 51.453125 -2.4375 C 46.515625 0.09375 40.847656 1.359375 34.453125 1.359375 Z M 34.453125 -25.5 C 38.078125 -25.5 40.988281 -26.039062 43.1875 -27.125 C 45.382812 -28.21875 46.484375 -29.726562 46.484375 -31.65625 C 46.484375 -33.582031 45.382812 -35.085938 43.1875 -36.171875 C 40.988281 -37.253906 38.078125 -37.796875 34.453125 -37.796875 C 30.773438 -37.796875 27.847656 -37.253906 25.671875 -36.171875 C 23.503906 -35.085938 22.421875 -33.582031 22.421875 -31.65625 C 22.421875 -29.726562 23.503906 -28.21875 25.671875 -27.125 C 27.847656 -26.039062 30.773438 -25.5 34.453125 -25.5 Z M 34.453125 -25.5 "/></g></g></g><g fill="#00ffff" fill-opacity="1"><g transform="translate(185.801125, 196.543025)"><g><path d="M 23.6875 -18.265625 L 26.40625 0 L 2.53125 0 L 2.53125 -63.3125 L 24.875 -63.3125 L 22.703125 -33.640625 L 23.875 -33.640625 L 29.9375 -63.3125 L 62.125 -63.3125 L 29.390625 -32.28125 L 30.390625 -31.109375 C 31.171875 -32.015625 32.101562 -33.023438 33.1875 -34.140625 C 34.269531 -35.253906 35.550781 -36.21875 37.03125 -37.03125 C 38.507812 -37.84375 40.179688 -38.25 42.046875 -38.25 C 46.992188 -38.25 51.035156 -36.632812 54.171875 -33.40625 C 57.304688 -30.1875 59.476562 -25.695312 60.6875 -19.9375 C 61.894531 -14.175781 62.070312 -7.53125 61.21875 0 L 35.09375 0 C 35.875 -3.070312 36.429688 -6.265625 36.765625 -9.578125 C 37.097656 -12.898438 37.097656 -15.992188 36.765625 -18.859375 C 36.429688 -21.722656 35.691406 -24.023438 34.546875 -25.765625 C 33.398438 -27.515625 31.742188 -28.390625 29.578125 -28.390625 C 27.160156 -28.390625 25.453125 -27.410156 24.453125 -25.453125 C 23.460938 -23.492188 23.207031 -21.097656 23.6875 -18.265625 Z M 23.6875 -18.265625 "/></g></g></g><g fill="#00ffff" fill-opacity="1"><g transform="translate(249.011865, 196.543025)"><g><path d="M 34.453125 1.359375 C 28.066406 1.359375 22.398438 0.09375 17.453125 -2.4375 C 12.503906 -4.96875 8.628906 -8.691406 5.828125 -13.609375 C 3.023438 -18.523438 1.625 -24.570312 1.625 -31.75 C 1.625 -38.914062 3.023438 -44.941406 5.828125 -49.828125 C 8.628906 -54.710938 12.503906 -58.40625 17.453125 -60.90625 C 22.398438 -63.40625 28.066406 -64.65625 34.453125 -64.65625 C 40.847656 -64.65625 46.515625 -63.40625 51.453125 -60.90625 C 56.398438 -58.40625 60.273438 -54.710938 63.078125 -49.828125 C 65.878906 -44.941406 67.28125 -38.914062 67.28125 -31.75 C 67.28125 -24.570312 65.878906 -18.523438 63.078125 -13.609375 C 60.273438 -8.691406 56.398438 -4.96875 51.453125 -2.4375 C 46.515625 0.09375 40.847656 1.359375 34.453125 1.359375 Z M 34.453125 -25.5 C 38.078125 -25.5 40.988281 -26.039062 43.1875 -27.125 C 45.382812 -28.21875 46.484375 -29.726562 46.484375 -31.65625 C 46.484375 -33.582031 45.382812 -35.085938 43.1875 -36.171875 C 40.988281 -37.253906 38.078125 -37.796875 34.453125 -37.796875 C 30.773438 -37.796875 27.847656 -37.253906 25.671875 -36.171875 C 23.503906 -35.085938 22.421875 -33.582031 22.421875 -31.65625 C 22.421875 -29.726562 23.503906 -28.21875 25.671875 -27.125 C 27.847656 -26.039062 30.773438 -25.5 34.453125 -25.5 Z M 34.453125 -25.5 "/></g></g></g><g fill="#000000" fill-opacity="1"><g transform="translate(55.378112, 196.543025)"><g><path d="M 23.6875 -18.265625 L 26.40625 0 L 2.53125 0 L 2.53125 -63.3125 L 24.875 -63.3125 L 22.703125 -33.640625 L 23.875 -33.640625 L 29.9375 -63.3125 L 62.125 -63.3125 L 29.390625 -32.28125 L 30.390625 -31.109375 C 31.171875 -32.015625 32.101562 -33.023438 33.1875 -34.140625 C 34.269531 -35.253906 35.550781 -36.21875 37.03125 -37.03125 C 38.507812 -37.84375 40.179688 -38.25 42.046875 -38.25 C 46.992188 -38.25 51.035156 -36.632812 54.171875 -33.40625 C 57.304688 -30.1875 59.476562 -25.695312 60.6875 -19.9375 C 61.894531 -14.175781 62.070312 -7.53125 61.21875 0 L 35.09375 0 C 35.875 -3.070312 36.429688 -6.265625 36.765625 -9.578125 C 37.097656 -12.898438 37.097656 -15.992188 36.765625 -18.859375 C 36.429688 -21.722656 35.691406 -24.023438 34.546875 -25.765625 C 33.398438 -27.515625 31.742188 -28.390625 29.578125 -28.390625 C 27.160156 -28.390625 25.453125 -27.410156 24.453125 -25.453125 C 23.460938 -23.492188 23.207031 -21.097656 23.6875 -18.265625 Z M 23.6875 -18.265625 "/></g></g></g><g fill="#000000" fill-opacity="1"><g transform="translate(118.588851, 196.543025)"><g><path d="M 34.453125 1.359375 C 28.066406 1.359375 22.398438 0.09375 17.453125 -2.4375 C 12.503906 -4.96875 8.628906 -8.691406 5.828125 -13.609375 C 3.023438 -18.523438 1.625 -24.570312 1.625 -31.75 C 1.625 -38.914062 3.023438 -44.941406 5.828125 -49.828125 C 8.628906 -54.710938 12.503906 -58.40625 17.453125 -60.90625 C 22.398438 -63.40625 28.066406 -64.65625 34.453125 -64.65625 C 40.847656 -64.65625 46.515625 -63.40625 51.453125 -60.90625 C 56.398438 -58.40625 60.273438 -54.710938 63.078125 -49.828125 C 65.878906 -44.941406 67.28125 -38.914062 67.28125 -31.75 C 67.28125 -24.570312 65.878906 -18.523438 63.078125 -13.609375 C 60.273438 -8.691406 56.398438 -4.96875 51.453125 -2.4375 C 46.515625 0.09375 40.847656 1.359375 34.453125 1.359375 Z M 34.453125 -25.5 C 38.078125 -25.5 40.988281 -26.039062 43.1875 -27.125 C 45.382812 -28.21875 46.484375 -29.726562 46.484375 -31.65625 C 46.484375 -33.582031 45.382812 -35.085938 43.1875 -36.171875 C 40.988281 -37.253906 38.078125 -37.796875 34.453125 -37.796875 C 30.773438 -37.796875 27.847656 -37.253906 25.671875 -36.171875 C 23.503906 -35.085938 22.421875 -33.582031 22.421875 -31.65625 C 22.421875 -29.726562 23.503906 -28.21875 25.671875 -27.125 C 27.847656 -26.039062 30.773438 -25.5 34.453125 -25.5 Z M 34.453125 -25.5 "/></g></g></g><g fill="#000000" fill-opacity="1"><g transform="translate(187.496694, 196.543025)"><g><path d="M 23.6875 -18.265625 L 26.40625 0 L 2.53125 0 L 2.53125 -63.3125 L 24.875 -63.3125 L 22.703125 -33.640625 L 23.875 -33.640625 L 29.9375 -63.3125 L 62.125 -63.3125 L 29.390625 -32.28125 L 30.390625 -31.109375 C 31.171875 -32.015625 32.101562 -33.023438 33.1875 -34.140625 C 34.269531 -35.253906 35.550781 -36.21875 37.03125 -37.03125 C 38.507812 -37.84375 40.179688 -38.25 42.046875 -38.25 C 46.992188 -38.25 51.035156 -36.632812 54.171875 -33.40625 C 57.304688 -30.1875 59.476562 -25.695312 60.6875 -19.9375 C 61.894531 -14.175781 62.070312 -7.53125 61.21875 0 L 35.09375 0 C 35.875 -3.070312 36.429688 -6.265625 36.765625 -9.578125 C 37.097656 -12.898438 37.097656 -15.992188 36.765625 -18.859375 C 36.429688 -21.722656 35.691406 -24.023438 34.546875 -25.765625 C 33.398438 -27.515625 31.742188 -28.390625 29.578125 -28.390625 C 27.160156 -28.390625 25.453125 -27.410156 24.453125 -25.453125 C 23.460938 -23.492188 23.207031 -21.097656 23.6875 -18.265625 Z M 23.6875 -18.265625 "/></g></g></g><g fill="#000000" fill-opacity="1"><g transform="translate(250.707433, 196.543025)"><g><path d="M 34.453125 1.359375 C 28.066406 1.359375 22.398438 0.09375 17.453125 -2.4375 C 12.503906 -4.96875 8.628906 -8.691406 5.828125 -13.609375 C 3.023438 -18.523438 1.625 -24.570312 1.625 -31.75 C 1.625 -38.914062 3.023438 -44.941406 5.828125 -49.828125 C 8.628906 -54.710938 12.503906 -58.40625 17.453125 -60.90625 C 22.398438 -63.40625 28.066406 -64.65625 34.453125 -64.65625 C 40.847656 -64.65625 46.515625 -63.40625 51.453125 -60.90625 C 56.398438 -58.40625 60.273438 -54.710938 63.078125 -49.828125 C 65.878906 -44.941406 67.28125 -38.914062 67.28125 -31.75 C 67.28125 -24.570312 65.878906 -18.523438 63.078125 -13.609375 C 60.273438 -8.691406 56.398438 -4.96875 51.453125 -2.4375 C 46.515625 0.09375 40.847656 1.359375 34.453125 1.359375 Z M 34.453125 -25.5 C 38.078125 -25.5 40.988281 -26.039062 43.1875 -27.125 C 45.382812 -28.21875 46.484375 -29.726562 46.484375 -31.65625 C 46.484375 -33.582031 45.382812 -35.085938 43.1875 -36.171875 C 40.988281 -37.253906 38.078125 -37.796875 34.453125 -37.796875 C 30.773438 -37.796875 27.847656 -37.253906 25.671875 -36.171875 C 23.503906 -35.085938 22.421875 -33.582031 22.421875 -31.65625 C 22.421875 -29.726562 23.503906 -28.21875 25.671875 -27.125 C 27.847656 -26.039062 30.773438 -25.5 34.453125 -25.5 Z M 34.453125 -25.5 "/></g></g></g><g fill="#ff00ff" fill-opacity="1"><g transform="translate(56.225898, 253.061966)"><g><path d="M 58.5625 -6.609375 C 58.53125 -6.210938 58.515625 -5.679688 58.515625 -5.015625 C 58.515625 -4.359375 58.519531 -3.6875 58.53125 -3 C 58.550781 -2.320312 58.5625 -1.734375 58.5625 -1.234375 C 58.5625 -0.742188 58.5625 -0.453125 58.5625 -0.359375 C 58.5625 -0.0546875 58.347656 0.109375 57.921875 0.140625 L 3.078125 0.140625 C 2.804688 0.140625 2.675781 0.0703125 2.6875 -0.0625 C 2.707031 -0.195312 2.820312 -0.296875 3.03125 -0.359375 C 3.570312 -0.484375 3.929688 -0.71875 4.109375 -1.0625 C 4.296875 -1.40625 4.390625 -1.785156 4.390625 -2.203125 C 4.390625 -2.628906 4.390625 -3.039062 4.390625 -3.4375 C 4.390625 -3.613281 4.390625 -4.363281 4.390625 -5.6875 C 4.390625 -7.019531 4.390625 -8.632812 4.390625 -10.53125 L 4.390625 -31.828125 C 4.390625 -32.160156 4.347656 -32.460938 4.265625 -32.734375 C 4.191406 -33.003906 4.003906 -33.234375 3.703125 -33.421875 C 3.585938 -33.503906 3.46875 -33.578125 3.34375 -33.640625 C 3.070312 -33.734375 2.941406 -33.851562 2.953125 -34 C 2.972656 -34.15625 3.117188 -34.234375 3.390625 -34.234375 L 11.390625 -34.234375 C 11.660156 -34.234375 11.785156 -34.15625 11.765625 -34 C 11.753906 -33.851562 11.644531 -33.75 11.4375 -33.6875 C 11.226562 -33.65625 11.046875 -33.59375 10.890625 -33.5 C 10.378906 -33.207031 10.113281 -32.785156 10.09375 -32.234375 C 10.082031 -31.691406 10.078125 -31.164062 10.078125 -30.65625 C 10.078125 -30.382812 10.078125 -29.453125 10.078125 -27.859375 L 10.078125 -6.28125 C 10.078125 -5.976562 10.179688 -5.710938 10.390625 -5.484375 C 10.609375 -5.265625 10.882812 -5.15625 11.21875 -5.15625 C 11.550781 -5.15625 12.410156 -5.15625 13.796875 -5.15625 C 15.179688 -5.15625 16.925781 -5.160156 19.03125 -5.171875 C 21.144531 -5.191406 23.472656 -5.21875 26.015625 -5.25 C 28.566406 -5.28125 31.179688 -5.300781 33.859375 -5.3125 C 36.546875 -5.320312 39.15625 -5.332031 41.6875 -5.34375 C 44.21875 -5.363281 46.53125 -5.378906 48.625 -5.390625 C 50.726562 -5.410156 52.445312 -5.425781 53.78125 -5.4375 C 55.125 -5.457031 55.945312 -5.46875 56.25 -5.46875 C 56.707031 -5.46875 57.070312 -5.585938 57.34375 -5.828125 C 57.613281 -6.066406 57.835938 -6.367188 58.015625 -6.734375 C 58.078125 -6.828125 58.125 -6.914062 58.15625 -7 C 58.1875 -7.09375 58.257812 -7.125 58.375 -7.09375 C 58.53125 -7.0625 58.59375 -6.898438 58.5625 -6.609375 Z M 58.5625 -6.609375 "/></g></g></g><g fill="#ff00ff" fill-opacity="1"><g transform="translate(116.0455, 253.061966)"><g><path d="M 64.578125 -0.640625 C 64.753906 -0.546875 64.847656 -0.398438 64.859375 -0.203125 C 64.878906 -0.00390625 64.738281 0.09375 64.4375 0.09375 C 64.195312 0.09375 63.675781 0.09375 62.875 0.09375 C 62.070312 0.09375 61.144531 0.09375 60.09375 0.09375 C 59.039062 0.09375 58 0.09375 56.96875 0.09375 C 55.945312 0.09375 55.066406 0.09375 54.328125 0.09375 C 53.585938 0.09375 53.144531 0.09375 53 0.09375 C 52.8125 0.09375 52.679688 -0.00390625 52.609375 -0.203125 C 52.535156 -0.398438 52.664062 -0.570312 53 -0.71875 C 53.082031 -0.75 53.175781 -0.78125 53.28125 -0.8125 C 53.394531 -0.84375 53.492188 -0.890625 53.578125 -0.953125 C 54.148438 -1.191406 54.285156 -1.628906 53.984375 -2.265625 C 53.898438 -2.472656 53.722656 -2.785156 53.453125 -3.203125 C 53.179688 -3.628906 52.628906 -4.1875 51.796875 -4.875 C 50.960938 -5.570312 49.660156 -6.421875 47.890625 -7.421875 C 45.203125 -8.804688 42.578125 -9.90625 40.015625 -10.71875 C 37.453125 -11.53125 35.03125 -12.144531 32.75 -12.5625 C 30.476562 -12.988281 28.4375 -13.269531 26.625 -13.40625 C 24.820312 -13.539062 23.347656 -13.625 22.203125 -13.65625 C 21.660156 -13.65625 21.019531 -13.40625 20.28125 -12.90625 C 19.539062 -12.40625 18.769531 -11.75 17.96875 -10.9375 C 17.175781 -10.125 16.394531 -9.257812 15.625 -8.34375 C 14.851562 -7.425781 14.148438 -6.546875 13.515625 -5.703125 C 12.890625 -4.859375 12.367188 -4.140625 11.953125 -3.546875 C 11.546875 -2.960938 11.316406 -2.625 11.265625 -2.53125 C 10.835938 -1.957031 10.894531 -1.488281 11.4375 -1.125 C 11.625 -1.039062 11.804688 -0.957031 11.984375 -0.875 C 12.160156 -0.800781 12.34375 -0.734375 12.53125 -0.671875 C 12.832031 -0.585938 12.972656 -0.4375 12.953125 -0.21875 C 12.941406 -0.0078125 12.785156 0.09375 12.484375 0.09375 C 12.328125 0.09375 11.832031 0.09375 11 0.09375 C 10.175781 0.09375 9.195312 0.09375 8.0625 0.09375 C 6.9375 0.09375 5.816406 0.09375 4.703125 0.09375 C 3.585938 0.09375 2.632812 0.09375 1.84375 0.09375 C 1.0625 0.09375 0.644531 0.09375 0.59375 0.09375 C 0.40625 0.09375 0.296875 -0.0390625 0.265625 -0.3125 C 0.234375 -0.582031 0.460938 -0.765625 0.953125 -0.859375 C 1.703125 -1.035156 2.394531 -1.289062 3.03125 -1.625 C 3.664062 -1.957031 4.222656 -2.394531 4.703125 -2.9375 C 4.828125 -3.09375 5.25 -3.617188 5.96875 -4.515625 C 6.6875 -5.421875 7.613281 -6.585938 8.75 -8.015625 C 9.882812 -9.453125 11.132812 -11.046875 12.5 -12.796875 C 13.875 -14.546875 15.285156 -16.335938 16.734375 -18.171875 C 18.179688 -20.015625 19.582031 -21.796875 20.9375 -23.515625 C 22.289062 -25.234375 23.503906 -26.785156 24.578125 -28.171875 C 25.648438 -29.554688 26.507812 -30.671875 27.15625 -31.515625 C 27.800781 -32.359375 28.140625 -32.8125 28.171875 -32.875 C 28.296875 -33.175781 28.273438 -33.394531 28.109375 -33.53125 C 27.941406 -33.664062 27.75 -33.765625 27.53125 -33.828125 C 27.257812 -33.910156 27.144531 -34.050781 27.1875 -34.25 C 27.238281 -34.445312 27.34375 -34.546875 27.5 -34.546875 C 27.644531 -34.546875 28.054688 -34.546875 28.734375 -34.546875 C 29.410156 -34.546875 30.21875 -34.546875 31.15625 -34.546875 C 32.09375 -34.546875 33.039062 -34.546875 34 -34.546875 C 34.96875 -34.546875 35.804688 -34.546875 36.515625 -34.546875 C 37.222656 -34.546875 37.664062 -34.546875 37.84375 -34.546875 C 38.082031 -34.546875 38.203125 -34.4375 38.203125 -34.21875 C 38.203125 -34.007812 38.066406 -33.894531 37.796875 -33.875 C 37.222656 -33.78125 37.015625 -33.460938 37.171875 -32.921875 C 37.316406 -32.585938 37.757812 -31.890625 38.5 -30.828125 C 39.238281 -29.773438 40.203125 -28.488281 41.390625 -26.96875 C 42.585938 -25.445312 43.910156 -23.78125 45.359375 -21.96875 C 46.804688 -20.164062 48.3125 -18.320312 49.875 -16.4375 C 51.445312 -14.550781 53 -12.710938 54.53125 -10.921875 C 56.070312 -9.128906 57.507812 -7.5 58.84375 -6.03125 C 60.1875 -4.570312 61.351562 -3.359375 62.34375 -2.390625 C 63.34375 -1.429688 64.085938 -0.847656 64.578125 -0.640625 Z M 42.546875 -15.875 C 42.703125 -15.875 42.796875 -15.960938 42.828125 -16.140625 C 42.859375 -16.328125 42.796875 -16.476562 42.640625 -16.59375 C 42.546875 -16.769531 42.445312 -16.925781 42.34375 -17.0625 C 42.238281 -17.207031 42.128906 -17.335938 42.015625 -17.453125 C 41.734375 -17.722656 41.472656 -18 41.234375 -18.28125 C 40.992188 -18.570312 40.769531 -18.851562 40.5625 -19.125 C 40.082031 -19.757812 39.59375 -20.378906 39.09375 -20.984375 C 38.59375 -21.585938 38.085938 -22.175781 37.578125 -22.75 C 37.179688 -23.226562 36.78125 -23.722656 36.375 -24.234375 C 35.96875 -24.742188 35.554688 -25.226562 35.140625 -25.6875 C 34.804688 -26.050781 34.492188 -26.421875 34.203125 -26.796875 C 33.921875 -27.171875 33.628906 -27.550781 33.328125 -27.9375 C 32.867188 -28.457031 32.429688 -28.445312 32.015625 -27.90625 C 31.566406 -27.363281 31.113281 -26.804688 30.65625 -26.234375 C 30.207031 -25.660156 29.738281 -25.097656 29.25 -24.546875 C 28.738281 -23.953125 28.242188 -23.34375 27.765625 -22.71875 C 27.285156 -22.101562 26.773438 -21.523438 26.234375 -20.984375 C 26.140625 -20.859375 26.046875 -20.726562 25.953125 -20.59375 C 25.859375 -20.457031 25.800781 -20.316406 25.78125 -20.171875 C 25.863281 -19.660156 26.070312 -19.375 26.40625 -19.3125 C 26.644531 -19.3125 27.175781 -19.21875 28 -19.03125 C 28.832031 -18.851562 29.835938 -18.628906 31.015625 -18.359375 C 32.191406 -18.085938 33.410156 -17.804688 34.671875 -17.515625 C 35.941406 -17.234375 37.148438 -16.960938 38.296875 -16.703125 C 39.441406 -16.453125 40.398438 -16.25 41.171875 -16.09375 C 41.941406 -15.945312 42.398438 -15.875 42.546875 -15.875 Z M 42.546875 -15.875 "/></g></g></g><g fill="#ff00ff" fill-opacity="1"><g transform="translate(181.245701, 253.061966)"><g><path d="M 57.96875 -10.3125 C 58.601562 -9.28125 58.992188 -8.222656 59.140625 -7.140625 C 59.296875 -6.054688 59.296875 -4.957031 59.140625 -3.84375 C 59.023438 -2.820312 58.453125 -1.894531 57.421875 -1.0625 C 56.398438 -0.226562 55.210938 0.171875 53.859375 0.140625 C 53.398438 0.140625 52.429688 0.140625 50.953125 0.140625 C 49.484375 0.140625 47.660156 0.140625 45.484375 0.140625 C 43.316406 0.140625 40.9375 0.140625 38.34375 0.140625 C 35.75 0.140625 33.09375 0.140625 30.375 0.140625 C 27.664062 0.140625 25.035156 0.140625 22.484375 0.140625 C 19.941406 0.140625 17.625 0.140625 15.53125 0.140625 C 13.4375 0.140625 11.726562 0.15625 10.40625 0.1875 L 10.359375 0.1875 C 10.171875 0.1875 10 0.1875 9.84375 0.1875 C 9.695312 0.1875 9.550781 0.1875 9.40625 0.1875 C 9.34375 0.1875 9.296875 0.1875 9.265625 0.1875 C 8.992188 0.1875 8.695312 0.175781 8.375 0.15625 C 8.0625 0.144531 7.726562 0.140625 7.375 0.140625 C 6.40625 0.140625 5.421875 0.140625 4.421875 0.140625 C 3.429688 0.140625 2.710938 0.15625 2.265625 0.1875 C 2.023438 0.207031 1.875 0.144531 1.8125 0 C 1.75 -0.144531 1.867188 -0.28125 2.171875 -0.40625 C 2.679688 -0.613281 3.007812 -0.921875 3.15625 -1.328125 C 3.3125 -1.734375 3.390625 -2.179688 3.390625 -2.671875 C 3.390625 -2.671875 3.390625 -3.1875 3.390625 -4.21875 C 3.390625 -5.257812 3.390625 -6.628906 3.390625 -8.328125 C 3.390625 -10.035156 3.390625 -11.90625 3.390625 -13.9375 C 3.390625 -15.976562 3.390625 -18.039062 3.390625 -20.125 C 3.390625 -22.207031 3.390625 -24.117188 3.390625 -25.859375 C 3.390625 -27.609375 3.390625 -29.046875 3.390625 -30.171875 C 3.390625 -31.304688 3.375 -31.953125 3.34375 -32.109375 C 3.3125 -32.554688 3.195312 -32.960938 3 -33.328125 C 2.8125 -33.691406 2.503906 -33.976562 2.078125 -34.1875 C 2.015625 -34.21875 1.945312 -34.238281 1.875 -34.25 C 1.800781 -34.269531 1.78125 -34.335938 1.8125 -34.453125 C 1.84375 -34.609375 1.960938 -34.6875 2.171875 -34.6875 L 53.265625 -34.6875 C 54.140625 -34.65625 54.953125 -34.460938 55.703125 -34.109375 C 56.460938 -33.765625 57.128906 -33.21875 57.703125 -32.46875 C 58.035156 -32.007812 58.226562 -31.523438 58.28125 -31.015625 C 58.34375 -30.503906 58.40625 -29.992188 58.46875 -29.484375 C 58.53125 -28.484375 58.414062 -27.550781 58.125 -26.6875 C 57.84375 -25.832031 57.414062 -25.03125 56.84375 -24.28125 C 56.414062 -23.707031 55.9375 -23.164062 55.40625 -22.65625 C 54.882812 -22.144531 54.335938 -21.660156 53.765625 -21.203125 C 52.921875 -20.578125 52.066406 -19.960938 51.203125 -19.359375 C 50.347656 -18.753906 49.453125 -18.207031 48.515625 -17.71875 C 48.367188 -17.664062 48.082031 -17.546875 47.65625 -17.359375 C 47.238281 -17.179688 46.96875 -17.0625 46.84375 -17 C 47.925781 -16.695312 49.03125 -16.296875 50.15625 -15.796875 C 51.289062 -15.304688 52.285156 -14.828125 53.140625 -14.359375 C 54.003906 -13.890625 54.570312 -13.535156 54.84375 -13.296875 C 55.300781 -12.992188 55.734375 -12.664062 56.140625 -12.3125 C 56.546875 -11.96875 56.929688 -11.601562 57.296875 -11.21875 C 57.535156 -10.914062 57.757812 -10.613281 57.96875 -10.3125 Z M 9.046875 -27.8125 C 9.015625 -27.625 9 -27.210938 9 -26.578125 C 9 -25.953125 9 -25.253906 9 -24.484375 C 9 -23.710938 9 -23.023438 9 -22.421875 C 9 -21.828125 9 -21.484375 9 -21.390625 C 9 -21.203125 9.003906 -21.003906 9.015625 -20.796875 C 9.035156 -20.585938 9.164062 -20.378906 9.40625 -20.171875 C 9.644531 -19.953125 9.898438 -19.789062 10.171875 -19.6875 C 10.441406 -19.582031 10.742188 -19.515625 11.078125 -19.484375 C 11.378906 -19.484375 12.1875 -19.445312 13.5 -19.375 C 14.8125 -19.300781 16.4375 -19.222656 18.375 -19.140625 C 20.320312 -19.066406 22.425781 -19.019531 24.6875 -19 C 26.945312 -18.988281 29.195312 -19.019531 31.4375 -19.09375 C 33.6875 -19.175781 35.753906 -19.335938 37.640625 -19.578125 C 39.523438 -19.816406 41.070312 -20.148438 42.28125 -20.578125 C 42.613281 -20.691406 43.15625 -20.890625 43.90625 -21.171875 C 44.65625 -21.460938 45.5 -21.84375 46.4375 -22.3125 C 47.375 -22.78125 48.289062 -23.359375 49.1875 -24.046875 C 50.09375 -24.742188 50.863281 -25.546875 51.5 -26.453125 C 51.6875 -26.660156 51.867188 -26.972656 52.046875 -27.390625 C 52.222656 -27.816406 52.238281 -28.210938 52.09375 -28.578125 C 51.9375 -28.910156 51.710938 -29.101562 51.421875 -29.15625 C 51.140625 -29.21875 50.835938 -29.265625 50.515625 -29.296875 C 50.515625 -29.296875 50.5 -29.296875 50.46875 -29.296875 C 50.4375 -29.296875 50.421875 -29.296875 50.421875 -29.296875 C 49.847656 -29.359375 49.273438 -29.378906 48.703125 -29.359375 C 48.128906 -29.347656 47.554688 -29.34375 46.984375 -29.34375 C 45.296875 -29.34375 43.597656 -29.34375 41.890625 -29.34375 C 40.191406 -29.34375 38.5 -29.34375 36.8125 -29.34375 C 33.3125 -29.3125 29.796875 -29.300781 26.265625 -29.3125 C 22.742188 -29.332031 19.21875 -29.3125 15.6875 -29.25 C 14.8125 -29.226562 13.9375 -29.226562 13.0625 -29.25 C 12.1875 -29.28125 11.316406 -29.269531 10.453125 -29.21875 C 10.054688 -29.1875 9.722656 -29.035156 9.453125 -28.765625 C 9.179688 -28.492188 9.046875 -28.175781 9.046875 -27.8125 Z M 52.140625 -5.203125 C 52.523438 -5.285156 52.734375 -5.476562 52.765625 -5.78125 C 52.796875 -6.082031 52.78125 -6.429688 52.71875 -6.828125 C 52.664062 -7.222656 52.351562 -7.679688 51.78125 -8.203125 C 51.207031 -8.734375 50.554688 -9.238281 49.828125 -9.71875 C 49.109375 -10.207031 48.492188 -10.539062 47.984375 -10.71875 C 45.929688 -11.5 43.609375 -12.128906 41.015625 -12.609375 C 38.421875 -13.097656 35.75 -13.460938 33 -13.703125 C 30.257812 -13.941406 27.59375 -14.101562 25 -14.1875 C 22.40625 -14.28125 20.066406 -14.320312 17.984375 -14.3125 C 15.910156 -14.300781 14.238281 -14.269531 12.96875 -14.21875 C 11.707031 -14.175781 11.046875 -14.15625 10.984375 -14.15625 C 10.328125 -14.21875 9.835938 -14.101562 9.515625 -13.8125 C 9.203125 -13.53125 9.03125 -13.054688 9 -12.390625 C 8.96875 -11.816406 8.941406 -10.945312 8.921875 -9.78125 C 8.910156 -8.625 8.890625 -7.457031 8.859375 -6.28125 C 8.859375 -5.945312 8.976562 -5.648438 9.21875 -5.390625 C 9.46875 -5.140625 9.769531 -5.015625 10.125 -5.015625 C 11.457031 -5.015625 13.1875 -5.003906 15.3125 -4.984375 C 17.4375 -4.972656 19.789062 -4.96875 22.375 -4.96875 C 24.96875 -4.96875 27.617188 -4.972656 30.328125 -4.984375 C 33.046875 -5.003906 35.675781 -5.019531 38.21875 -5.03125 C 40.769531 -5.050781 43.070312 -5.066406 45.125 -5.078125 C 47.175781 -5.097656 48.828125 -5.113281 50.078125 -5.125 C 51.328125 -5.144531 52.015625 -5.171875 52.140625 -5.203125 Z M 52.140625 -5.203125 "/></g></g></g><g fill="#ff00ff" fill-opacity="1"><g transform="translate(241.427015, 253.061966)"><g><path d="M 63.765625 -24.921875 C 64.035156 -24.796875 64.140625 -24.644531 64.078125 -24.46875 C 64.015625 -24.25 63.847656 -24.140625 63.578125 -24.140625 C 63.398438 -24.140625 63.035156 -24.140625 62.484375 -24.140625 C 61.941406 -24.140625 61.335938 -24.140625 60.671875 -24.140625 C 60.015625 -24.140625 59.390625 -24.140625 58.796875 -24.140625 C 58.210938 -24.140625 57.753906 -24.140625 57.421875 -24.140625 C 57.242188 -24.140625 57.101562 -24.15625 57 -24.1875 C 56.894531 -24.21875 56.828125 -24.328125 56.796875 -24.515625 C 56.765625 -24.691406 56.804688 -24.796875 56.921875 -24.828125 C 57.046875 -24.859375 57.15625 -24.898438 57.25 -24.953125 C 57.632812 -25.109375 57.890625 -25.394531 58.015625 -25.8125 C 58.140625 -26.238281 58.109375 -26.691406 57.921875 -27.171875 C 57.648438 -27.898438 57.296875 -28.414062 56.859375 -28.71875 C 56.421875 -29.019531 55.828125 -29.195312 55.078125 -29.25 C 54.710938 -29.25 53.90625 -29.25 52.65625 -29.25 C 51.40625 -29.25 49.828125 -29.25 47.921875 -29.25 C 46.023438 -29.25 43.929688 -29.25 41.640625 -29.25 C 39.347656 -29.25 36.988281 -29.25 34.5625 -29.25 C 32.132812 -29.25 29.757812 -29.25 27.4375 -29.25 C 25.125 -29.25 22.992188 -29.25 21.046875 -29.25 C 19.097656 -29.25 17.453125 -29.253906 16.109375 -29.265625 C 14.773438 -29.285156 13.882812 -29.296875 13.4375 -29.296875 C 13.007812 -29.296875 12.578125 -29.285156 12.140625 -29.265625 C 11.703125 -29.253906 11.273438 -29.191406 10.859375 -29.078125 C 10.367188 -28.953125 10.140625 -28.664062 10.171875 -28.21875 C 10.203125 -27.644531 10.679688 -27.078125 11.609375 -26.515625 C 12.546875 -25.960938 13.800781 -25.441406 15.375 -24.953125 C 18.0625 -24.203125 20.890625 -23.460938 23.859375 -22.734375 C 26.828125 -22.015625 29.796875 -21.320312 32.765625 -20.65625 C 35.734375 -20 38.601562 -19.351562 41.375 -18.71875 C 44.144531 -18.082031 46.695312 -17.457031 49.03125 -16.84375 C 51.375 -16.226562 53.390625 -15.625 55.078125 -15.03125 C 56.765625 -14.445312 58 -13.867188 58.78125 -13.296875 C 59.238281 -12.992188 59.671875 -12.664062 60.078125 -12.3125 C 60.484375 -11.96875 60.863281 -11.585938 61.21875 -11.171875 C 61.46875 -10.898438 61.679688 -10.613281 61.859375 -10.3125 C 62.492188 -9.28125 62.882812 -8.222656 63.03125 -7.140625 C 63.1875 -6.054688 63.203125 -4.957031 63.078125 -3.84375 C 62.929688 -2.789062 62.546875 -1.96875 61.921875 -1.375 C 61.304688 -0.789062 60.515625 -0.363281 59.546875 -0.09375 C 58.921875 0.0625 58.320312 0.140625 57.75 0.140625 C 57.289062 0.140625 56.316406 0.140625 54.828125 0.140625 C 53.335938 0.140625 51.484375 0.140625 49.265625 0.140625 C 47.046875 0.140625 44.625 0.140625 42 0.140625 C 39.382812 0.140625 36.703125 0.140625 33.953125 0.140625 C 31.210938 0.140625 28.5625 0.144531 26 0.15625 C 23.4375 0.175781 21.113281 0.1875 19.03125 0.1875 C 16.957031 0.1875 15.269531 0.1875 13.96875 0.1875 C 12.675781 0.1875 11.9375 0.1875 11.75 0.1875 C 9.820312 0.1875 8.195312 -0.210938 6.875 -1.015625 C 5.550781 -1.816406 4.601562 -2.847656 4.03125 -4.109375 C 3.78125 -4.648438 3.625 -5.269531 3.5625 -5.96875 C 3.507812 -6.664062 3.46875 -7.300781 3.4375 -7.875 C 3.40625 -8.445312 3.316406 -8.804688 3.171875 -8.953125 C 2.984375 -9.191406 2.753906 -9.359375 2.484375 -9.453125 C 2.210938 -9.546875 2.078125 -9.679688 2.078125 -9.859375 C 2.078125 -10.066406 2.257812 -10.1875 2.625 -10.21875 L 9.171875 -10.21875 C 9.296875 -10.21875 9.460938 -10.207031 9.671875 -10.1875 C 9.890625 -10.175781 10.007812 -10.097656 10.03125 -9.953125 C 10.0625 -9.765625 9.992188 -9.625 9.828125 -9.53125 C 9.671875 -9.445312 9.546875 -9.390625 9.453125 -9.359375 C 8.992188 -9.148438 8.726562 -8.867188 8.65625 -8.515625 C 8.582031 -8.171875 8.617188 -7.695312 8.765625 -7.09375 C 8.953125 -6.40625 9.28125 -5.898438 9.75 -5.578125 C 10.21875 -5.265625 10.828125 -5.078125 11.578125 -5.015625 C 11.785156 -5.015625 12.5625 -5.003906 13.90625 -4.984375 C 15.25 -4.972656 16.972656 -4.96875 19.078125 -4.96875 C 21.191406 -4.96875 23.546875 -4.96875 26.140625 -4.96875 C 28.734375 -4.96875 31.390625 -4.96875 34.109375 -4.96875 C 36.835938 -4.96875 39.484375 -4.972656 42.046875 -4.984375 C 44.609375 -5.003906 46.921875 -5.019531 48.984375 -5.03125 C 51.054688 -5.050781 52.722656 -5.066406 53.984375 -5.078125 C 55.253906 -5.097656 55.9375 -5.125 56.03125 -5.15625 C 56.445312 -5.269531 56.707031 -5.492188 56.8125 -5.828125 C 56.914062 -6.160156 56.863281 -6.492188 56.65625 -6.828125 C 56.175781 -7.546875 55.597656 -8.128906 54.921875 -8.578125 C 54.242188 -9.035156 53.523438 -9.445312 52.765625 -9.8125 C 51.566406 -10.382812 49.941406 -10.957031 47.890625 -11.53125 C 45.835938 -12.101562 43.515625 -12.691406 40.921875 -13.296875 C 38.328125 -13.898438 35.585938 -14.515625 32.703125 -15.140625 C 29.828125 -15.773438 26.957031 -16.425781 24.09375 -17.09375 C 21.238281 -17.757812 18.535156 -18.4375 15.984375 -19.125 C 13.429688 -19.820312 11.175781 -20.546875 9.21875 -21.296875 C 8.613281 -21.535156 8.023438 -21.820312 7.453125 -22.15625 C 6.890625 -22.488281 6.347656 -22.863281 5.828125 -23.28125 C 5.109375 -23.882812 4.628906 -24.460938 4.390625 -25.015625 C 4.148438 -25.578125 3.953125 -26.296875 3.796875 -27.171875 C 3.679688 -27.867188 3.660156 -28.640625 3.734375 -29.484375 C 3.804688 -30.328125 3.992188 -31.082031 4.296875 -31.75 C 4.742188 -32.738281 5.539062 -33.457031 6.6875 -33.90625 C 7.65625 -34.300781 8.628906 -34.472656 9.609375 -34.421875 C 10.585938 -34.378906 11.578125 -34.375 12.578125 -34.40625 L 55.84375 -34.40625 C 57.082031 -34.4375 58.242188 -34.128906 59.328125 -33.484375 C 60.410156 -32.835938 61.238281 -31.957031 61.8125 -30.84375 C 62.207031 -30.050781 62.488281 -29.253906 62.65625 -28.453125 C 62.820312 -27.660156 62.90625 -26.960938 62.90625 -26.359375 C 62.875 -25.972656 62.914062 -25.671875 63.03125 -25.453125 C 63.15625 -25.242188 63.398438 -25.066406 63.765625 -24.921875 Z M 63.765625 -24.921875 "/></g></g></g><g fill="#00ffff" fill-opacity="1"><g transform="translate(54.530327, 253.061966)"><g><path d="M 58.5625 -6.609375 C 58.53125 -6.210938 58.515625 -5.679688 58.515625 -5.015625 C 58.515625 -4.359375 58.519531 -3.6875 58.53125 -3 C 58.550781 -2.320312 58.5625 -1.734375 58.5625 -1.234375 C 58.5625 -0.742188 58.5625 -0.453125 58.5625 -0.359375 C 58.5625 -0.0546875 58.347656 0.109375 57.921875 0.140625 L 3.078125 0.140625 C 2.804688 0.140625 2.675781 0.0703125 2.6875 -0.0625 C 2.707031 -0.195312 2.820312 -0.296875 3.03125 -0.359375 C 3.570312 -0.484375 3.929688 -0.71875 4.109375 -1.0625 C 4.296875 -1.40625 4.390625 -1.785156 4.390625 -2.203125 C 4.390625 -2.628906 4.390625 -3.039062 4.390625 -3.4375 C 4.390625 -3.613281 4.390625 -4.363281 4.390625 -5.6875 C 4.390625 -7.019531 4.390625 -8.632812 4.390625 -10.53125 L 4.390625 -31.828125 C 4.390625 -32.160156 4.347656 -32.460938 4.265625 -32.734375 C 4.191406 -33.003906 4.003906 -33.234375 3.703125 -33.421875 C 3.585938 -33.503906 3.46875 -33.578125 3.34375 -33.640625 C 3.070312 -33.734375 2.941406 -33.851562 2.953125 -34 C 2.972656 -34.15625 3.117188 -34.234375 3.390625 -34.234375 L 11.390625 -34.234375 C 11.660156 -34.234375 11.785156 -34.15625 11.765625 -34 C 11.753906 -33.851562 11.644531 -33.75 11.4375 -33.6875 C 11.226562 -33.65625 11.046875 -33.59375 10.890625 -33.5 C 10.378906 -33.207031 10.113281 -32.785156 10.09375 -32.234375 C 10.082031 -31.691406 10.078125 -31.164062 10.078125 -30.65625 C 10.078125 -30.382812 10.078125 -29.453125 10.078125 -27.859375 L 10.078125 -6.28125 C 10.078125 -5.976562 10.179688 -5.710938 10.390625 -5.484375 C 10.609375 -5.265625 10.882812 -5.15625 11.21875 -5.15625 C 11.550781 -5.15625 12.410156 -5.15625 13.796875 -5.15625 C 15.179688 -5.15625 16.925781 -5.160156 19.03125 -5.171875 C 21.144531 -5.191406 23.472656 -5.21875 26.015625 -5.25 C 28.566406 -5.28125 31.179688 -5.300781 33.859375 -5.3125 C 36.546875 -5.320312 39.15625 -5.332031 41.6875 -5.34375 C 44.21875 -5.363281 46.53125 -5.378906 48.625 -5.390625 C 50.726562 -5.410156 52.445312 -5.425781 53.78125 -5.4375 C 55.125 -5.457031 55.945312 -5.46875 56.25 -5.46875 C 56.707031 -5.46875 57.070312 -5.585938 57.34375 -5.828125 C 57.613281 -6.066406 57.835938 -6.367188 58.015625 -6.734375 C 58.078125 -6.828125 58.125 -6.914062 58.15625 -7 C 58.1875 -7.09375 58.257812 -7.125 58.375 -7.09375 C 58.53125 -7.0625 58.59375 -6.898438 58.5625 -6.609375 Z M 58.5625 -6.609375 "/></g></g></g><g fill="#00ffff" fill-opacity="1"><g transform="translate(114.349929, 253.061966)"><g><path d="M 64.578125 -0.640625 C 64.753906 -0.546875 64.847656 -0.398438 64.859375 -0.203125 C 64.878906 -0.00390625 64.738281 0.09375 64.4375 0.09375 C 64.195312 0.09375 63.675781 0.09375 62.875 0.09375 C 62.070312 0.09375 61.144531 0.09375 60.09375 0.09375 C 59.039062 0.09375 58 0.09375 56.96875 0.09375 C 55.945312 0.09375 55.066406 0.09375 54.328125 0.09375 C 53.585938 0.09375 53.144531 0.09375 53 0.09375 C 52.8125 0.09375 52.679688 -0.00390625 52.609375 -0.203125 C 52.535156 -0.398438 52.664062 -0.570312 53 -0.71875 C 53.082031 -0.75 53.175781 -0.78125 53.28125 -0.8125 C 53.394531 -0.84375 53.492188 -0.890625 53.578125 -0.953125 C 54.148438 -1.191406 54.285156 -1.628906 53.984375 -2.265625 C 53.898438 -2.472656 53.722656 -2.785156 53.453125 -3.203125 C 53.179688 -3.628906 52.628906 -4.1875 51.796875 -4.875 C 50.960938 -5.570312 49.660156 -6.421875 47.890625 -7.421875 C 45.203125 -8.804688 42.578125 -9.90625 40.015625 -10.71875 C 37.453125 -11.53125 35.03125 -12.144531 32.75 -12.5625 C 30.476562 -12.988281 28.4375 -13.269531 26.625 -13.40625 C 24.820312 -13.539062 23.347656 -13.625 22.203125 -13.65625 C 21.660156 -13.65625 21.019531 -13.40625 20.28125 -12.90625 C 19.539062 -12.40625 18.769531 -11.75 17.96875 -10.9375 C 17.175781 -10.125 16.394531 -9.257812 15.625 -8.34375 C 14.851562 -7.425781 14.148438 -6.546875 13.515625 -5.703125 C 12.890625 -4.859375 12.367188 -4.140625 11.953125 -3.546875 C 11.546875 -2.960938 11.316406 -2.625 11.265625 -2.53125 C 10.835938 -1.957031 10.894531 -1.488281 11.4375 -1.125 C 11.625 -1.039062 11.804688 -0.957031 11.984375 -0.875 C 12.160156 -0.800781 12.34375 -0.734375 12.53125 -0.671875 C 12.832031 -0.585938 12.972656 -0.4375 12.953125 -0.21875 C 12.941406 -0.0078125 12.785156 0.09375 12.484375 0.09375 C 12.328125 0.09375 11.832031 0.09375 11 0.09375 C 10.175781 0.09375 9.195312 0.09375 8.0625 0.09375 C 6.9375 0.09375 5.816406 0.09375 4.703125 0.09375 C 3.585938 0.09375 2.632812 0.09375 1.84375 0.09375 C 1.0625 0.09375 0.644531 0.09375 0.59375 0.09375 C 0.40625 0.09375 0.296875 -0.0390625 0.265625 -0.3125 C 0.234375 -0.582031 0.460938 -0.765625 0.953125 -0.859375 C 1.703125 -1.035156 2.394531 -1.289062 3.03125 -1.625 C 3.664062 -1.957031 4.222656 -2.394531 4.703125 -2.9375 C 4.828125 -3.09375 5.25 -3.617188 5.96875 -4.515625 C 6.6875 -5.421875 7.613281 -6.585938 8.75 -8.015625 C 9.882812 -9.453125 11.132812 -11.046875 12.5 -12.796875 C 13.875 -14.546875 15.285156 -16.335938 16.734375 -18.171875 C 18.179688 -20.015625 19.582031 -21.796875 20.9375 -23.515625 C 22.289062 -25.234375 23.503906 -26.785156 24.578125 -28.171875 C 25.648438 -29.554688 26.507812 -30.671875 27.15625 -31.515625 C 27.800781 -32.359375 28.140625 -32.8125 28.171875 -32.875 C 28.296875 -33.175781 28.273438 -33.394531 28.109375 -33.53125 C 27.941406 -33.664062 27.75 -33.765625 27.53125 -33.828125 C 27.257812 -33.910156 27.144531 -34.050781 27.1875 -34.25 C 27.238281 -34.445312 27.34375 -34.546875 27.5 -34.546875 C 27.644531 -34.546875 28.054688 -34.546875 28.734375 -34.546875 C 29.410156 -34.546875 30.21875 -34.546875 31.15625 -34.546875 C 32.09375 -34.546875 33.039062 -34.546875 34 -34.546875 C 34.96875 -34.546875 35.804688 -34.546875 36.515625 -34.546875 C 37.222656 -34.546875 37.664062 -34.546875 37.84375 -34.546875 C 38.082031 -34.546875 38.203125 -34.4375 38.203125 -34.21875 C 38.203125 -34.007812 38.066406 -33.894531 37.796875 -33.875 C 37.222656 -33.78125 37.015625 -33.460938 37.171875 -32.921875 C 37.316406 -32.585938 37.757812 -31.890625 38.5 -30.828125 C 39.238281 -29.773438 40.203125 -28.488281 41.390625 -26.96875 C 42.585938 -25.445312 43.910156 -23.78125 45.359375 -21.96875 C 46.804688 -20.164062 48.3125 -18.320312 49.875 -16.4375 C 51.445312 -14.550781 53 -12.710938 54.53125 -10.921875 C 56.070312 -9.128906 57.507812 -7.5 58.84375 -6.03125 C 60.1875 -4.570312 61.351562 -3.359375 62.34375 -2.390625 C 63.34375 -1.429688 64.085938 -0.847656 64.578125 -0.640625 Z M 42.546875 -15.875 C 42.703125 -15.875 42.796875 -15.960938 42.828125 -16.140625 C 42.859375 -16.328125 42.796875 -16.476562 42.640625 -16.59375 C 42.546875 -16.769531 42.445312 -16.925781 42.34375 -17.0625 C 42.238281 -17.207031 42.128906 -17.335938 42.015625 -17.453125 C 41.734375 -17.722656 41.472656 -18 41.234375 -18.28125 C 40.992188 -18.570312 40.769531 -18.851562 40.5625 -19.125 C 40.082031 -19.757812 39.59375 -20.378906 39.09375 -20.984375 C 38.59375 -21.585938 38.085938 -22.175781 37.578125 -22.75 C 37.179688 -23.226562 36.78125 -23.722656 36.375 -24.234375 C 35.96875 -24.742188 35.554688 -25.226562 35.140625 -25.6875 C 34.804688 -26.050781 34.492188 -26.421875 34.203125 -26.796875 C 33.921875 -27.171875 33.628906 -27.550781 33.328125 -27.9375 C 32.867188 -28.457031 32.429688 -28.445312 32.015625 -27.90625 C 31.566406 -27.363281 31.113281 -26.804688 30.65625 -26.234375 C 30.207031 -25.660156 29.738281 -25.097656 29.25 -24.546875 C 28.738281 -23.953125 28.242188 -23.34375 27.765625 -22.71875 C 27.285156 -22.101562 26.773438 -21.523438 26.234375 -20.984375 C 26.140625 -20.859375 26.046875 -20.726562 25.953125 -20.59375 C 25.859375 -20.457031 25.800781 -20.316406 25.78125 -20.171875 C 25.863281 -19.660156 26.070312 -19.375 26.40625 -19.3125 C 26.644531 -19.3125 27.175781 -19.21875 28 -19.03125 C 28.832031 -18.851562 29.835938 -18.628906 31.015625 -18.359375 C 32.191406 -18.085938 33.410156 -17.804688 34.671875 -17.515625 C 35.941406 -17.234375 37.148438 -16.960938 38.296875 -16.703125 C 39.441406 -16.453125 40.398438 -16.25 41.171875 -16.09375 C 41.941406 -15.945312 42.398438 -15.875 42.546875 -15.875 Z M 42.546875 -15.875 "/></g></g></g><g fill="#00ffff" fill-opacity="1"><g transform="translate(179.55013, 253.061966)"><g><path d="M 57.96875 -10.3125 C 58.601562 -9.28125 58.992188 -8.222656 59.140625 -7.140625 C 59.296875 -6.054688 59.296875 -4.957031 59.140625 -3.84375 C 59.023438 -2.820312 58.453125 -1.894531 57.421875 -1.0625 C 56.398438 -0.226562 55.210938 0.171875 53.859375 0.140625 C 53.398438 0.140625 52.429688 0.140625 50.953125 0.140625 C 49.484375 0.140625 47.660156 0.140625 45.484375 0.140625 C 43.316406 0.140625 40.9375 0.140625 38.34375 0.140625 C 35.75 0.140625 33.09375 0.140625 30.375 0.140625 C 27.664062 0.140625 25.035156 0.140625 22.484375 0.140625 C 19.941406 0.140625 17.625 0.140625 15.53125 0.140625 C 13.4375 0.140625 11.726562 0.15625 10.40625 0.1875 L 10.359375 0.1875 C 10.171875 0.1875 10 0.1875 9.84375 0.1875 C 9.695312 0.1875 9.550781 0.1875 9.40625 0.1875 C 9.34375 0.1875 9.296875 0.1875 9.265625 0.1875 C 8.992188 0.1875 8.695312 0.175781 8.375 0.15625 C 8.0625 0.144531 7.726562 0.140625 7.375 0.140625 C 6.40625 0.140625 5.421875 0.140625 4.421875 0.140625 C 3.429688 0.140625 2.710938 0.15625 2.265625 0.1875 C 2.023438 0.207031 1.875 0.144531 1.8125 0 C 1.75 -0.144531 1.867188 -0.28125 2.171875 -0.40625 C 2.679688 -0.613281 3.007812 -0.921875 3.15625 -1.328125 C 3.3125 -1.734375 3.390625 -2.179688 3.390625 -2.671875 C 3.390625 -2.671875 3.390625 -3.1875 3.390625 -4.21875 C 3.390625 -5.257812 3.390625 -6.628906 3.390625 -8.328125 C 3.390625 -10.035156 3.390625 -11.90625 3.390625 -13.9375 C 3.390625 -15.976562 3.390625 -18.039062 3.390625 -20.125 C 3.390625 -22.207031 3.390625 -24.117188 3.390625 -25.859375 C 3.390625 -27.609375 3.390625 -29.046875 3.390625 -30.171875 C 3.390625 -31.304688 3.375 -31.953125 3.34375 -32.109375 C 3.3125 -32.554688 3.195312 -32.960938 3 -33.328125 C 2.8125 -33.691406 2.503906 -33.976562 2.078125 -34.1875 C 2.015625 -34.21875 1.945312 -34.238281 1.875 -34.25 C 1.800781 -34.269531 1.78125 -34.335938 1.8125 -34.453125 C 1.84375 -34.609375 1.960938 -34.6875 2.171875 -34.6875 L 53.265625 -34.6875 C 54.140625 -34.65625 54.953125 -34.460938 55.703125 -34.109375 C 56.460938 -33.765625 57.128906 -33.21875 57.703125 -32.46875 C 58.035156 -32.007812 58.226562 -31.523438 58.28125 -31.015625 C 58.34375 -30.503906 58.40625 -29.992188 58.46875 -29.484375 C 58.53125 -28.484375 58.414062 -27.550781 58.125 -26.6875 C 57.84375 -25.832031 57.414062 -25.03125 56.84375 -24.28125 C 56.414062 -23.707031 55.9375 -23.164062 55.40625 -22.65625 C 54.882812 -22.144531 54.335938 -21.660156 53.765625 -21.203125 C 52.921875 -20.578125 52.066406 -19.960938 51.203125 -19.359375 C 50.347656 -18.753906 49.453125 -18.207031 48.515625 -17.71875 C 48.367188 -17.664062 48.082031 -17.546875 47.65625 -17.359375 C 47.238281 -17.179688 46.96875 -17.0625 46.84375 -17 C 47.925781 -16.695312 49.03125 -16.296875 50.15625 -15.796875 C 51.289062 -15.304688 52.285156 -14.828125 53.140625 -14.359375 C 54.003906 -13.890625 54.570312 -13.535156 54.84375 -13.296875 C 55.300781 -12.992188 55.734375 -12.664062 56.140625 -12.3125 C 56.546875 -11.96875 56.929688 -11.601562 57.296875 -11.21875 C 57.535156 -10.914062 57.757812 -10.613281 57.96875 -10.3125 Z M 9.046875 -27.8125 C 9.015625 -27.625 9 -27.210938 9 -26.578125 C 9 -25.953125 9 -25.253906 9 -24.484375 C 9 -23.710938 9 -23.023438 9 -22.421875 C 9 -21.828125 9 -21.484375 9 -21.390625 C 9 -21.203125 9.003906 -21.003906 9.015625 -20.796875 C 9.035156 -20.585938 9.164062 -20.378906 9.40625 -20.171875 C 9.644531 -19.953125 9.898438 -19.789062 10.171875 -19.6875 C 10.441406 -19.582031 10.742188 -19.515625 11.078125 -19.484375 C 11.378906 -19.484375 12.1875 -19.445312 13.5 -19.375 C 14.8125 -19.300781 16.4375 -19.222656 18.375 -19.140625 C 20.320312 -19.066406 22.425781 -19.019531 24.6875 -19 C 26.945312 -18.988281 29.195312 -19.019531 31.4375 -19.09375 C 33.6875 -19.175781 35.753906 -19.335938 37.640625 -19.578125 C 39.523438 -19.816406 41.070312 -20.148438 42.28125 -20.578125 C 42.613281 -20.691406 43.15625 -20.890625 43.90625 -21.171875 C 44.65625 -21.460938 45.5 -21.84375 46.4375 -22.3125 C 47.375 -22.78125 48.289062 -23.359375 49.1875 -24.046875 C 50.09375 -24.742188 50.863281 -25.546875 51.5 -26.453125 C 51.6875 -26.660156 51.867188 -26.972656 52.046875 -27.390625 C 52.222656 -27.816406 52.238281 -28.210938 52.09375 -28.578125 C 51.9375 -28.910156 51.710938 -29.101562 51.421875 -29.15625 C 51.140625 -29.21875 50.835938 -29.265625 50.515625 -29.296875 C 50.515625 -29.296875 50.5 -29.296875 50.46875 -29.296875 C 50.4375 -29.296875 50.421875 -29.296875 50.421875 -29.296875 C 49.847656 -29.359375 49.273438 -29.378906 48.703125 -29.359375 C 48.128906 -29.347656 47.554688 -29.34375 46.984375 -29.34375 C 45.296875 -29.34375 43.597656 -29.34375 41.890625 -29.34375 C 40.191406 -29.34375 38.5 -29.34375 36.8125 -29.34375 C 33.3125 -29.3125 29.796875 -29.300781 26.265625 -29.3125 C 22.742188 -29.332031 19.21875 -29.3125 15.6875 -29.25 C 14.8125 -29.226562 13.9375 -29.226562 13.0625 -29.25 C 12.1875 -29.28125 11.316406 -29.269531 10.453125 -29.21875 C 10.054688 -29.1875 9.722656 -29.035156 9.453125 -28.765625 C 9.179688 -28.492188 9.046875 -28.175781 9.046875 -27.8125 Z M 52.140625 -5.203125 C 52.523438 -5.285156 52.734375 -5.476562 52.765625 -5.78125 C 52.796875 -6.082031 52.78125 -6.429688 52.71875 -6.828125 C 52.664062 -7.222656 52.351562 -7.679688 51.78125 -8.203125 C 51.207031 -8.734375 50.554688 -9.238281 49.828125 -9.71875 C 49.109375 -10.207031 48.492188 -10.539062 47.984375 -10.71875 C 45.929688 -11.5 43.609375 -12.128906 41.015625 -12.609375 C 38.421875 -13.097656 35.75 -13.460938 33 -13.703125 C 30.257812 -13.941406 27.59375 -14.101562 25 -14.1875 C 22.40625 -14.28125 20.066406 -14.320312 17.984375 -14.3125 C 15.910156 -14.300781 14.238281 -14.269531 12.96875 -14.21875 C 11.707031 -14.175781 11.046875 -14.15625 10.984375 -14.15625 C 10.328125 -14.21875 9.835938 -14.101562 9.515625 -13.8125 C 9.203125 -13.53125 9.03125 -13.054688 9 -12.390625 C 8.96875 -11.816406 8.941406 -10.945312 8.921875 -9.78125 C 8.910156 -8.625 8.890625 -7.457031 8.859375 -6.28125 C 8.859375 -5.945312 8.976562 -5.648438 9.21875 -5.390625 C 9.46875 -5.140625 9.769531 -5.015625 10.125 -5.015625 C 11.457031 -5.015625 13.1875 -5.003906 15.3125 -4.984375 C 17.4375 -4.972656 19.789062 -4.96875 22.375 -4.96875 C 24.96875 -4.96875 27.617188 -4.972656 30.328125 -4.984375 C 33.046875 -5.003906 35.675781 -5.019531 38.21875 -5.03125 C 40.769531 -5.050781 43.070312 -5.066406 45.125 -5.078125 C 47.175781 -5.097656 48.828125 -5.113281 50.078125 -5.125 C 51.328125 -5.144531 52.015625 -5.171875 52.140625 -5.203125 Z M 52.140625 -5.203125 "/></g></g></g><g fill="#00ffff" fill-opacity="1"><g transform="translate(239.731444, 253.061966)"><g><path d="M 63.765625 -24.921875 C 64.035156 -24.796875 64.140625 -24.644531 64.078125 -24.46875 C 64.015625 -24.25 63.847656 -24.140625 63.578125 -24.140625 C 63.398438 -24.140625 63.035156 -24.140625 62.484375 -24.140625 C 61.941406 -24.140625 61.335938 -24.140625 60.671875 -24.140625 C 60.015625 -24.140625 59.390625 -24.140625 58.796875 -24.140625 C 58.210938 -24.140625 57.753906 -24.140625 57.421875 -24.140625 C 57.242188 -24.140625 57.101562 -24.15625 57 -24.1875 C 56.894531 -24.21875 56.828125 -24.328125 56.796875 -24.515625 C 56.765625 -24.691406 56.804688 -24.796875 56.921875 -24.828125 C 57.046875 -24.859375 57.15625 -24.898438 57.25 -24.953125 C 57.632812 -25.109375 57.890625 -25.394531 58.015625 -25.8125 C 58.140625 -26.238281 58.109375 -26.691406 57.921875 -27.171875 C 57.648438 -27.898438 57.296875 -28.414062 56.859375 -28.71875 C 56.421875 -29.019531 55.828125 -29.195312 55.078125 -29.25 C 54.710938 -29.25 53.90625 -29.25 52.65625 -29.25 C 51.40625 -29.25 49.828125 -29.25 47.921875 -29.25 C 46.023438 -29.25 43.929688 -29.25 41.640625 -29.25 C 39.347656 -29.25 36.988281 -29.25 34.5625 -29.25 C 32.132812 -29.25 29.757812 -29.25 27.4375 -29.25 C 25.125 -29.25 22.992188 -29.25 21.046875 -29.25 C 19.097656 -29.25 17.453125 -29.253906 16.109375 -29.265625 C 14.773438 -29.285156 13.882812 -29.296875 13.4375 -29.296875 C 13.007812 -29.296875 12.578125 -29.285156 12.140625 -29.265625 C 11.703125 -29.253906 11.273438 -29.191406 10.859375 -29.078125 C 10.367188 -28.953125 10.140625 -28.664062 10.171875 -28.21875 C 10.203125 -27.644531 10.679688 -27.078125 11.609375 -26.515625 C 12.546875 -25.960938 13.800781 -25.441406 15.375 -24.953125 C 18.0625 -24.203125 20.890625 -23.460938 23.859375 -22.734375 C 26.828125 -22.015625 29.796875 -21.320312 32.765625 -20.65625 C 35.734375 -20 38.601562 -19.351562 41.375 -18.71875 C 44.144531 -18.082031 46.695312 -17.457031 49.03125 -16.84375 C 51.375 -16.226562 53.390625 -15.625 55.078125 -15.03125 C 56.765625 -14.445312 58 -13.867188 58.78125 -13.296875 C 59.238281 -12.992188 59.671875 -12.664062 60.078125 -12.3125 C 60.484375 -11.96875 60.863281 -11.585938 61.21875 -11.171875 C 61.46875 -10.898438 61.679688 -10.613281 61.859375 -10.3125 C 62.492188 -9.28125 62.882812 -8.222656 63.03125 -7.140625 C 63.1875 -6.054688 63.203125 -4.957031 63.078125 -3.84375 C 62.929688 -2.789062 62.546875 -1.96875 61.921875 -1.375 C 61.304688 -0.789062 60.515625 -0.363281 59.546875 -0.09375 C 58.921875 0.0625 58.320312 0.140625 57.75 0.140625 C 57.289062 0.140625 56.316406 0.140625 54.828125 0.140625 C 53.335938 0.140625 51.484375 0.140625 49.265625 0.140625 C 47.046875 0.140625 44.625 0.140625 42 0.140625 C 39.382812 0.140625 36.703125 0.140625 33.953125 0.140625 C 31.210938 0.140625 28.5625 0.144531 26 0.15625 C 23.4375 0.175781 21.113281 0.1875 19.03125 0.1875 C 16.957031 0.1875 15.269531 0.1875 13.96875 0.1875 C 12.675781 0.1875 11.9375 0.1875 11.75 0.1875 C 9.820312 0.1875 8.195312 -0.210938 6.875 -1.015625 C 5.550781 -1.816406 4.601562 -2.847656 4.03125 -4.109375 C 3.78125 -4.648438 3.625 -5.269531 3.5625 -5.96875 C 3.507812 -6.664062 3.46875 -7.300781 3.4375 -7.875 C 3.40625 -8.445312 3.316406 -8.804688 3.171875 -8.953125 C 2.984375 -9.191406 2.753906 -9.359375 2.484375 -9.453125 C 2.210938 -9.546875 2.078125 -9.679688 2.078125 -9.859375 C 2.078125 -10.066406 2.257812 -10.1875 2.625 -10.21875 L 9.171875 -10.21875 C 9.296875 -10.21875 9.460938 -10.207031 9.671875 -10.1875 C 9.890625 -10.175781 10.007812 -10.097656 10.03125 -9.953125 C 10.0625 -9.765625 9.992188 -9.625 9.828125 -9.53125 C 9.671875 -9.445312 9.546875 -9.390625 9.453125 -9.359375 C 8.992188 -9.148438 8.726562 -8.867188 8.65625 -8.515625 C 8.582031 -8.171875 8.617188 -7.695312 8.765625 -7.09375 C 8.953125 -6.40625 9.28125 -5.898438 9.75 -5.578125 C 10.21875 -5.265625 10.828125 -5.078125 11.578125 -5.015625 C 11.785156 -5.015625 12.5625 -5.003906 13.90625 -4.984375 C 15.25 -4.972656 16.972656 -4.96875 19.078125 -4.96875 C 21.191406 -4.96875 23.546875 -4.96875 26.140625 -4.96875 C 28.734375 -4.96875 31.390625 -4.96875 34.109375 -4.96875 C 36.835938 -4.96875 39.484375 -4.972656 42.046875 -4.984375 C 44.609375 -5.003906 46.921875 -5.019531 48.984375 -5.03125 C 51.054688 -5.050781 52.722656 -5.066406 53.984375 -5.078125 C 55.253906 -5.097656 55.9375 -5.125 56.03125 -5.15625 C 56.445312 -5.269531 56.707031 -5.492188 56.8125 -5.828125 C 56.914062 -6.160156 56.863281 -6.492188 56.65625 -6.828125 C 56.175781 -7.546875 55.597656 -8.128906 54.921875 -8.578125 C 54.242188 -9.035156 53.523438 -9.445312 52.765625 -9.8125 C 51.566406 -10.382812 49.941406 -10.957031 47.890625 -11.53125 C 45.835938 -12.101562 43.515625 -12.691406 40.921875 -13.296875 C 38.328125 -13.898438 35.585938 -14.515625 32.703125 -15.140625 C 29.828125 -15.773438 26.957031 -16.425781 24.09375 -17.09375 C 21.238281 -17.757812 18.535156 -18.4375 15.984375 -19.125 C 13.429688 -19.820312 11.175781 -20.546875 9.21875 -21.296875 C 8.613281 -21.535156 8.023438 -21.820312 7.453125 -22.15625 C 6.890625 -22.488281 6.347656 -22.863281 5.828125 -23.28125 C 5.109375 -23.882812 4.628906 -24.460938 4.390625 -25.015625 C 4.148438 -25.578125 3.953125 -26.296875 3.796875 -27.171875 C 3.679688 -27.867188 3.660156 -28.640625 3.734375 -29.484375 C 3.804688 -30.328125 3.992188 -31.082031 4.296875 -31.75 C 4.742188 -32.738281 5.539062 -33.457031 6.6875 -33.90625 C 7.65625 -34.300781 8.628906 -34.472656 9.609375 -34.421875 C 10.585938 -34.378906 11.578125 -34.375 12.578125 -34.40625 L 55.84375 -34.40625 C 57.082031 -34.4375 58.242188 -34.128906 59.328125 -33.484375 C 60.410156 -32.835938 61.238281 -31.957031 61.8125 -30.84375 C 62.207031 -30.050781 62.488281 -29.253906 62.65625 -28.453125 C 62.820312 -27.660156 62.90625 -26.960938 62.90625 -26.359375 C 62.875 -25.972656 62.914062 -25.671875 63.03125 -25.453125 C 63.15625 -25.242188 63.398438 -25.066406 63.765625 -24.921875 Z M 63.765625 -24.921875 "/></g></g></g><g fill="#000000" fill-opacity="1"><g transform="translate(55.378112, 253.061966)"><g><path d="M 58.5625 -6.609375 C 58.53125 -6.210938 58.515625 -5.679688 58.515625 -5.015625 C 58.515625 -4.359375 58.519531 -3.6875 58.53125 -3 C 58.550781 -2.320312 58.5625 -1.734375 58.5625 -1.234375 C 58.5625 -0.742188 58.5625 -0.453125 58.5625 -0.359375 C 58.5625 -0.0546875 58.347656 0.109375 57.921875 0.140625 L 3.078125 0.140625 C 2.804688 0.140625 2.675781 0.0703125 2.6875 -0.0625 C 2.707031 -0.195312 2.820312 -0.296875 3.03125 -0.359375 C 3.570312 -0.484375 3.929688 -0.71875 4.109375 -1.0625 C 4.296875 -1.40625 4.390625 -1.785156 4.390625 -2.203125 C 4.390625 -2.628906 4.390625 -3.039062 4.390625 -3.4375 C 4.390625 -3.613281 4.390625 -4.363281 4.390625 -5.6875 C 4.390625 -7.019531 4.390625 -8.632812 4.390625 -10.53125 L 4.390625 -31.828125 C 4.390625 -32.160156 4.347656 -32.460938 4.265625 -32.734375 C 4.191406 -33.003906 4.003906 -33.234375 3.703125 -33.421875 C 3.585938 -33.503906 3.46875 -33.578125 3.34375 -33.640625 C 3.070312 -33.734375 2.941406 -33.851562 2.953125 -34 C 2.972656 -34.15625 3.117188 -34.234375 3.390625 -34.234375 L 11.390625 -34.234375 C 11.660156 -34.234375 11.785156 -34.15625 11.765625 -34 C 11.753906 -33.851562 11.644531 -33.75 11.4375 -33.6875 C 11.226562 -33.65625 11.046875 -33.59375 10.890625 -33.5 C 10.378906 -33.207031 10.113281 -32.785156 10.09375 -32.234375 C 10.082031 -31.691406 10.078125 -31.164062 10.078125 -30.65625 C 10.078125 -30.382812 10.078125 -29.453125 10.078125 -27.859375 L 10.078125 -6.28125 C 10.078125 -5.976562 10.179688 -5.710938 10.390625 -5.484375 C 10.609375 -5.265625 10.882812 -5.15625 11.21875 -5.15625 C 11.550781 -5.15625 12.410156 -5.15625 13.796875 -5.15625 C 15.179688 -5.15625 16.925781 -5.160156 19.03125 -5.171875 C 21.144531 -5.191406 23.472656 -5.21875 26.015625 -5.25 C 28.566406 -5.28125 31.179688 -5.300781 33.859375 -5.3125 C 36.546875 -5.320312 39.15625 -5.332031 41.6875 -5.34375 C 44.21875 -5.363281 46.53125 -5.378906 48.625 -5.390625 C 50.726562 -5.410156 52.445312 -5.425781 53.78125 -5.4375 C 55.125 -5.457031 55.945312 -5.46875 56.25 -5.46875 C 56.707031 -5.46875 57.070312 -5.585938 57.34375 -5.828125 C 57.613281 -6.066406 57.835938 -6.367188 58.015625 -6.734375 C 58.078125 -6.828125 58.125 -6.914062 58.15625 -7 C 58.1875 -7.09375 58.257812 -7.125 58.375 -7.09375 C 58.53125 -7.0625 58.59375 -6.898438 58.5625 -6.609375 Z M 58.5625 -6.609375 "/></g></g></g><g fill="#000000" fill-opacity="1"><g transform="translate(115.197714, 253.061966)"><g><path d="M 64.578125 -0.640625 C 64.753906 -0.546875 64.847656 -0.398438 64.859375 -0.203125 C 64.878906 -0.00390625 64.738281 0.09375 64.4375 0.09375 C 64.195312 0.09375 63.675781 0.09375 62.875 0.09375 C 62.070312 0.09375 61.144531 0.09375 60.09375 0.09375 C 59.039062 0.09375 58 0.09375 56.96875 0.09375 C 55.945312 0.09375 55.066406 0.09375 54.328125 0.09375 C 53.585938 0.09375 53.144531 0.09375 53 0.09375 C 52.8125 0.09375 52.679688 -0.00390625 52.609375 -0.203125 C 52.535156 -0.398438 52.664062 -0.570312 53 -0.71875 C 53.082031 -0.75 53.175781 -0.78125 53.28125 -0.8125 C 53.394531 -0.84375 53.492188 -0.890625 53.578125 -0.953125 C 54.148438 -1.191406 54.285156 -1.628906 53.984375 -2.265625 C 53.898438 -2.472656 53.722656 -2.785156 53.453125 -3.203125 C 53.179688 -3.628906 52.628906 -4.1875 51.796875 -4.875 C 50.960938 -5.570312 49.660156 -6.421875 47.890625 -7.421875 C 45.203125 -8.804688 42.578125 -9.90625 40.015625 -10.71875 C 37.453125 -11.53125 35.03125 -12.144531 32.75 -12.5625 C 30.476562 -12.988281 28.4375 -13.269531 26.625 -13.40625 C 24.820312 -13.539062 23.347656 -13.625 22.203125 -13.65625 C 21.660156 -13.65625 21.019531 -13.40625 20.28125 -12.90625 C 19.539062 -12.40625 18.769531 -11.75 17.96875 -10.9375 C 17.175781 -10.125 16.394531 -9.257812 15.625 -8.34375 C 14.851562 -7.425781 14.148438 -6.546875 13.515625 -5.703125 C 12.890625 -4.859375 12.367188 -4.140625 11.953125 -3.546875 C 11.546875 -2.960938 11.316406 -2.625 11.265625 -2.53125 C 10.835938 -1.957031 10.894531 -1.488281 11.4375 -1.125 C 11.625 -1.039062 11.804688 -0.957031 11.984375 -0.875 C 12.160156 -0.800781 12.34375 -0.734375 12.53125 -0.671875 C 12.832031 -0.585938 12.972656 -0.4375 12.953125 -0.21875 C 12.941406 -0.0078125 12.785156 0.09375 12.484375 0.09375 C 12.328125 0.09375 11.832031 0.09375 11 0.09375 C 10.175781 0.09375 9.195312 0.09375 8.0625 0.09375 C 6.9375 0.09375 5.816406 0.09375 4.703125 0.09375 C 3.585938 0.09375 2.632812 0.09375 1.84375 0.09375 C 1.0625 0.09375 0.644531 0.09375 0.59375 0.09375 C 0.40625 0.09375 0.296875 -0.0390625 0.265625 -0.3125 C 0.234375 -0.582031 0.460938 -0.765625 0.953125 -0.859375 C 1.703125 -1.035156 2.394531 -1.289062 3.03125 -1.625 C 3.664062 -1.957031 4.222656 -2.394531 4.703125 -2.9375 C 4.828125 -3.09375 5.25 -3.617188 5.96875 -4.515625 C 6.6875 -5.421875 7.613281 -6.585938 8.75 -8.015625 C 9.882812 -9.453125 11.132812 -11.046875 12.5 -12.796875 C 13.875 -14.546875 15.285156 -16.335938 16.734375 -18.171875 C 18.179688 -20.015625 19.582031 -21.796875 20.9375 -23.515625 C 22.289062 -25.234375 23.503906 -26.785156 24.578125 -28.171875 C 25.648438 -29.554688 26.507812 -30.671875 27.15625 -31.515625 C 27.800781 -32.359375 28.140625 -32.8125 28.171875 -32.875 C 28.296875 -33.175781 28.273438 -33.394531 28.109375 -33.53125 C 27.941406 -33.664062 27.75 -33.765625 27.53125 -33.828125 C 27.257812 -33.910156 27.144531 -34.050781 27.1875 -34.25 C 27.238281 -34.445312 27.34375 -34.546875 27.5 -34.546875 C 27.644531 -34.546875 28.054688 -34.546875 28.734375 -34.546875 C 29.410156 -34.546875 30.21875 -34.546875 31.15625 -34.546875 C 32.09375 -34.546875 33.039062 -34.546875 34 -34.546875 C 34.96875 -34.546875 35.804688 -34.546875 36.515625 -34.546875 C 37.222656 -34.546875 37.664062 -34.546875 37.84375 -34.546875 C 38.082031 -34.546875 38.203125 -34.4375 38.203125 -34.21875 C 38.203125 -34.007812 38.066406 -33.894531 37.796875 -33.875 C 37.222656 -33.78125 37.015625 -33.460938 37.171875 -32.921875 C 37.316406 -32.585938 37.757812 -31.890625 38.5 -30.828125 C 39.238281 -29.773438 40.203125 -28.488281 41.390625 -26.96875 C 42.585938 -25.445312 43.910156 -23.78125 45.359375 -21.96875 C 46.804688 -20.164062 48.3125 -18.320312 49.875 -16.4375 C 51.445312 -14.550781 53 -12.710938 54.53125 -10.921875 C 56.070312 -9.128906 57.507812 -7.5 58.84375 -6.03125 C 60.1875 -4.570312 61.351562 -3.359375 62.34375 -2.390625 C 63.34375 -1.429688 64.085938 -0.847656 64.578125 -0.640625 Z M 42.546875 -15.875 C 42.703125 -15.875 42.796875 -15.960938 42.828125 -16.140625 C 42.859375 -16.328125 42.796875 -16.476562 42.640625 -16.59375 C 42.546875 -16.769531 42.445312 -16.925781 42.34375 -17.0625 C 42.238281 -17.207031 42.128906 -17.335938 42.015625 -17.453125 C 41.734375 -17.722656 41.472656 -18 41.234375 -18.28125 C 40.992188 -18.570312 40.769531 -18.851562 40.5625 -19.125 C 40.082031 -19.757812 39.59375 -20.378906 39.09375 -20.984375 C 38.59375 -21.585938 38.085938 -22.175781 37.578125 -22.75 C 37.179688 -23.226562 36.78125 -23.722656 36.375 -24.234375 C 35.96875 -24.742188 35.554688 -25.226562 35.140625 -25.6875 C 34.804688 -26.050781 34.492188 -26.421875 34.203125 -26.796875 C 33.921875 -27.171875 33.628906 -27.550781 33.328125 -27.9375 C 32.867188 -28.457031 32.429688 -28.445312 32.015625 -27.90625 C 31.566406 -27.363281 31.113281 -26.804688 30.65625 -26.234375 C 30.207031 -25.660156 29.738281 -25.097656 29.25 -24.546875 C 28.738281 -23.953125 28.242188 -23.34375 27.765625 -22.71875 C 27.285156 -22.101562 26.773438 -21.523438 26.234375 -20.984375 C 26.140625 -20.859375 26.046875 -20.726562 25.953125 -20.59375 C 25.859375 -20.457031 25.800781 -20.316406 25.78125 -20.171875 C 25.863281 -19.660156 26.070312 -19.375 26.40625 -19.3125 C 26.644531 -19.3125 27.175781 -19.21875 28 -19.03125 C 28.832031 -18.851562 29.835938 -18.628906 31.015625 -18.359375 C 32.191406 -18.085938 33.410156 -17.804688 34.671875 -17.515625 C 35.941406 -17.234375 37.148438 -16.960938 38.296875 -16.703125 C 39.441406 -16.453125 40.398438 -16.25 41.171875 -16.09375 C 41.941406 -15.945312 42.398438 -15.875 42.546875 -15.875 Z M 42.546875 -15.875 "/></g></g></g><g fill="#000000" fill-opacity="1"><g transform="translate(180.397915, 253.061966)"><g><path d="M 57.96875 -10.3125 C 58.601562 -9.28125 58.992188 -8.222656 59.140625 -7.140625 C 59.296875 -6.054688 59.296875 -4.957031 59.140625 -3.84375 C 59.023438 -2.820312 58.453125 -1.894531 57.421875 -1.0625 C 56.398438 -0.226562 55.210938 0.171875 53.859375 0.140625 C 53.398438 0.140625 52.429688 0.140625 50.953125 0.140625 C 49.484375 0.140625 47.660156 0.140625 45.484375 0.140625 C 43.316406 0.140625 40.9375 0.140625 38.34375 0.140625 C 35.75 0.140625 33.09375 0.140625 30.375 0.140625 C 27.664062 0.140625 25.035156 0.140625 22.484375 0.140625 C 19.941406 0.140625 17.625 0.140625 15.53125 0.140625 C 13.4375 0.140625 11.726562 0.15625 10.40625 0.1875 L 10.359375 0.1875 C 10.171875 0.1875 10 0.1875 9.84375 0.1875 C 9.695312 0.1875 9.550781 0.1875 9.40625 0.1875 C 9.34375 0.1875 9.296875 0.1875 9.265625 0.1875 C 8.992188 0.1875 8.695312 0.175781 8.375 0.15625 C 8.0625 0.144531 7.726562 0.140625 7.375 0.140625 C 6.40625 0.140625 5.421875 0.140625 4.421875 0.140625 C 3.429688 0.140625 2.710938 0.15625 2.265625 0.1875 C 2.023438 0.207031 1.875 0.144531 1.8125 0 C 1.75 -0.144531 1.867188 -0.28125 2.171875 -0.40625 C 2.679688 -0.613281 3.007812 -0.921875 3.15625 -1.328125 C 3.3125 -1.734375 3.390625 -2.179688 3.390625 -2.671875 C 3.390625 -2.671875 3.390625 -3.1875 3.390625 -4.21875 C 3.390625 -5.257812 3.390625 -6.628906 3.390625 -8.328125 C 3.390625 -10.035156 3.390625 -11.90625 3.390625 -13.9375 C 3.390625 -15.976562 3.390625 -18.039062 3.390625 -20.125 C 3.390625 -22.207031 3.390625 -24.117188 3.390625 -25.859375 C 3.390625 -27.609375 3.390625 -29.046875 3.390625 -30.171875 C 3.390625 -31.304688 3.375 -31.953125 3.34375 -32.109375 C 3.3125 -32.554688 3.195312 -32.960938 3 -33.328125 C 2.8125 -33.691406 2.503906 -33.976562 2.078125 -34.1875 C 2.015625 -34.21875 1.945312 -34.238281 1.875 -34.25 C 1.800781 -34.269531 1.78125 -34.335938 1.8125 -34.453125 C 1.84375 -34.609375 1.960938 -34.6875 2.171875 -34.6875 L 53.265625 -34.6875 C 54.140625 -34.65625 54.953125 -34.460938 55.703125 -34.109375 C 56.460938 -33.765625 57.128906 -33.21875 57.703125 -32.46875 C 58.035156 -32.007812 58.226562 -31.523438 58.28125 -31.015625 C 58.34375 -30.503906 58.40625 -29.992188 58.46875 -29.484375 C 58.53125 -28.484375 58.414062 -27.550781 58.125 -26.6875 C 57.84375 -25.832031 57.414062 -25.03125 56.84375 -24.28125 C 56.414062 -23.707031 55.9375 -23.164062 55.40625 -22.65625 C 54.882812 -22.144531 54.335938 -21.660156 53.765625 -21.203125 C 52.921875 -20.578125 52.066406 -19.960938 51.203125 -19.359375 C 50.347656 -18.753906 49.453125 -18.207031 48.515625 -17.71875 C 48.367188 -17.664062 48.082031 -17.546875 47.65625 -17.359375 C 47.238281 -17.179688 46.96875 -17.0625 46.84375 -17 C 47.925781 -16.695312 49.03125 -16.296875 50.15625 -15.796875 C 51.289062 -15.304688 52.285156 -14.828125 53.140625 -14.359375 C 54.003906 -13.890625 54.570312 -13.535156 54.84375 -13.296875 C 55.300781 -12.992188 55.734375 -12.664062 56.140625 -12.3125 C 56.546875 -11.96875 56.929688 -11.601562 57.296875 -11.21875 C 57.535156 -10.914062 57.757812 -10.613281 57.96875 -10.3125 Z M 9.046875 -27.8125 C 9.015625 -27.625 9 -27.210938 9 -26.578125 C 9 -25.953125 9 -25.253906 9 -24.484375 C 9 -23.710938 9 -23.023438 9 -22.421875 C 9 -21.828125 9 -21.484375 9 -21.390625 C 9 -21.203125 9.003906 -21.003906 9.015625 -20.796875 C 9.035156 -20.585938 9.164062 -20.378906 9.40625 -20.171875 C 9.644531 -19.953125 9.898438 -19.789062 10.171875 -19.6875 C 10.441406 -19.582031 10.742188 -19.515625 11.078125 -19.484375 C 11.378906 -19.484375 12.1875 -19.445312 13.5 -19.375 C 14.8125 -19.300781 16.4375 -19.222656 18.375 -19.140625 C 20.320312 -19.066406 22.425781 -19.019531 24.6875 -19 C 26.945312 -18.988281 29.195312 -19.019531 31.4375 -19.09375 C 33.6875 -19.175781 35.753906 -19.335938 37.640625 -19.578125 C 39.523438 -19.816406 41.070312 -20.148438 42.28125 -20.578125 C 42.613281 -20.691406 43.15625 -20.890625 43.90625 -21.171875 C 44.65625 -21.460938 45.5 -21.84375 46.4375 -22.3125 C 47.375 -22.78125 48.289062 -23.359375 49.1875 -24.046875 C 50.09375 -24.742188 50.863281 -25.546875 51.5 -26.453125 C 51.6875 -26.660156 51.867188 -26.972656 52.046875 -27.390625 C 52.222656 -27.816406 52.238281 -28.210938 52.09375 -28.578125 C 51.9375 -28.910156 51.710938 -29.101562 51.421875 -29.15625 C 51.140625 -29.21875 50.835938 -29.265625 50.515625 -29.296875 C 50.515625 -29.296875 50.5 -29.296875 50.46875 -29.296875 C 50.4375 -29.296875 50.421875 -29.296875 50.421875 -29.296875 C 49.847656 -29.359375 49.273438 -29.378906 48.703125 -29.359375 C 48.128906 -29.347656 47.554688 -29.34375 46.984375 -29.34375 C 45.296875 -29.34375 43.597656 -29.34375 41.890625 -29.34375 C 40.191406 -29.34375 38.5 -29.34375 36.8125 -29.34375 C 33.3125 -29.3125 29.796875 -29.300781 26.265625 -29.3125 C 22.742188 -29.332031 19.21875 -29.3125 15.6875 -29.25 C 14.8125 -29.226562 13.9375 -29.226562 13.0625 -29.25 C 12.1875 -29.28125 11.316406 -29.269531 10.453125 -29.21875 C 10.054688 -29.1875 9.722656 -29.035156 9.453125 -28.765625 C 9.179688 -28.492188 9.046875 -28.175781 9.046875 -27.8125 Z M 52.140625 -5.203125 C 52.523438 -5.285156 52.734375 -5.476562 52.765625 -5.78125 C 52.796875 -6.082031 52.78125 -6.429688 52.71875 -6.828125 C 52.664062 -7.222656 52.351562 -7.679688 51.78125 -8.203125 C 51.207031 -8.734375 50.554688 -9.238281 49.828125 -9.71875 C 49.109375 -10.207031 48.492188 -10.539062 47.984375 -10.71875 C 45.929688 -11.5 43.609375 -12.128906 41.015625 -12.609375 C 38.421875 -13.097656 35.75 -13.460938 33 -13.703125 C 30.257812 -13.941406 27.59375 -14.101562 25 -14.1875 C 22.40625 -14.28125 20.066406 -14.320312 17.984375 -14.3125 C 15.910156 -14.300781 14.238281 -14.269531 12.96875 -14.21875 C 11.707031 -14.175781 11.046875 -14.15625 10.984375 -14.15625 C 10.328125 -14.21875 9.835938 -14.101562 9.515625 -13.8125 C 9.203125 -13.53125 9.03125 -13.054688 9 -12.390625 C 8.96875 -11.816406 8.941406 -10.945312 8.921875 -9.78125 C 8.910156 -8.625 8.890625 -7.457031 8.859375 -6.28125 C 8.859375 -5.945312 8.976562 -5.648438 9.21875 -5.390625 C 9.46875 -5.140625 9.769531 -5.015625 10.125 -5.015625 C 11.457031 -5.015625 13.1875 -5.003906 15.3125 -4.984375 C 17.4375 -4.972656 19.789062 -4.96875 22.375 -4.96875 C 24.96875 -4.96875 27.617188 -4.972656 30.328125 -4.984375 C 33.046875 -5.003906 35.675781 -5.019531 38.21875 -5.03125 C 40.769531 -5.050781 43.070312 -5.066406 45.125 -5.078125 C 47.175781 -5.097656 48.828125 -5.113281 50.078125 -5.125 C 51.328125 -5.144531 52.015625 -5.171875 52.140625 -5.203125 Z M 52.140625 -5.203125 "/></g></g></g><g fill="#000000" fill-opacity="1"><g transform="translate(240.57923, 253.061966)"><g><path d="M 63.765625 -24.921875 C 64.035156 -24.796875 64.140625 -24.644531 64.078125 -24.46875 C 64.015625 -24.25 63.847656 -24.140625 63.578125 -24.140625 C 63.398438 -24.140625 63.035156 -24.140625 62.484375 -24.140625 C 61.941406 -24.140625 61.335938 -24.140625 60.671875 -24.140625 C 60.015625 -24.140625 59.390625 -24.140625 58.796875 -24.140625 C 58.210938 -24.140625 57.753906 -24.140625 57.421875 -24.140625 C 57.242188 -24.140625 57.101562 -24.15625 57 -24.1875 C 56.894531 -24.21875 56.828125 -24.328125 56.796875 -24.515625 C 56.765625 -24.691406 56.804688 -24.796875 56.921875 -24.828125 C 57.046875 -24.859375 57.15625 -24.898438 57.25 -24.953125 C 57.632812 -25.109375 57.890625 -25.394531 58.015625 -25.8125 C 58.140625 -26.238281 58.109375 -26.691406 57.921875 -27.171875 C 57.648438 -27.898438 57.296875 -28.414062 56.859375 -28.71875 C 56.421875 -29.019531 55.828125 -29.195312 55.078125 -29.25 C 54.710938 -29.25 53.90625 -29.25 52.65625 -29.25 C 51.40625 -29.25 49.828125 -29.25 47.921875 -29.25 C 46.023438 -29.25 43.929688 -29.25 41.640625 -29.25 C 39.347656 -29.25 36.988281 -29.25 34.5625 -29.25 C 32.132812 -29.25 29.757812 -29.25 27.4375 -29.25 C 25.125 -29.25 22.992188 -29.25 21.046875 -29.25 C 19.097656 -29.25 17.453125 -29.253906 16.109375 -29.265625 C 14.773438 -29.285156 13.882812 -29.296875 13.4375 -29.296875 C 13.007812 -29.296875 12.578125 -29.285156 12.140625 -29.265625 C 11.703125 -29.253906 11.273438 -29.191406 10.859375 -29.078125 C 10.367188 -28.953125 10.140625 -28.664062 10.171875 -28.21875 C 10.203125 -27.644531 10.679688 -27.078125 11.609375 -26.515625 C 12.546875 -25.960938 13.800781 -25.441406 15.375 -24.953125 C 18.0625 -24.203125 20.890625 -23.460938 23.859375 -22.734375 C 26.828125 -22.015625 29.796875 -21.320312 32.765625 -20.65625 C 35.734375 -20 38.601562 -19.351562 41.375 -18.71875 C 44.144531 -18.082031 46.695312 -17.457031 49.03125 -16.84375 C 51.375 -16.226562 53.390625 -15.625 55.078125 -15.03125 C 56.765625 -14.445312 58 -13.867188 58.78125 -13.296875 C 59.238281 -12.992188 59.671875 -12.664062 60.078125 -12.3125 C 60.484375 -11.96875 60.863281 -11.585938 61.21875 -11.171875 C 61.46875 -10.898438 61.679688 -10.613281 61.859375 -10.3125 C 62.492188 -9.28125 62.882812 -8.222656 63.03125 -7.140625 C 63.1875 -6.054688 63.203125 -4.957031 63.078125 -3.84375 C 62.929688 -2.789062 62.546875 -1.96875 61.921875 -1.375 C 61.304688 -0.789062 60.515625 -0.363281 59.546875 -0.09375 C 58.921875 0.0625 58.320312 0.140625 57.75 0.140625 C 57.289062 0.140625 56.316406 0.140625 54.828125 0.140625 C 53.335938 0.140625 51.484375 0.140625 49.265625 0.140625 C 47.046875 0.140625 44.625 0.140625 42 0.140625 C 39.382812 0.140625 36.703125 0.140625 33.953125 0.140625 C 31.210938 0.140625 28.5625 0.144531 26 0.15625 C 23.4375 0.175781 21.113281 0.1875 19.03125 0.1875 C 16.957031 0.1875 15.269531 0.1875 13.96875 0.1875 C 12.675781 0.1875 11.9375 0.1875 11.75 0.1875 C 9.820312 0.1875 8.195312 -0.210938 6.875 -1.015625 C 5.550781 -1.816406 4.601562 -2.847656 4.03125 -4.109375 C 3.78125 -4.648438 3.625 -5.269531 3.5625 -5.96875 C 3.507812 -6.664062 3.46875 -7.300781 3.4375 -7.875 C 3.40625 -8.445312 3.316406 -8.804688 3.171875 -8.953125 C 2.984375 -9.191406 2.753906 -9.359375 2.484375 -9.453125 C 2.210938 -9.546875 2.078125 -9.679688 2.078125 -9.859375 C 2.078125 -10.066406 2.257812 -10.1875 2.625 -10.21875 L 9.171875 -10.21875 C 9.296875 -10.21875 9.460938 -10.207031 9.671875 -10.1875 C 9.890625 -10.175781 10.007812 -10.097656 10.03125 -9.953125 C 10.0625 -9.765625 9.992188 -9.625 9.828125 -9.53125 C 9.671875 -9.445312 9.546875 -9.390625 9.453125 -9.359375 C 8.992188 -9.148438 8.726562 -8.867188 8.65625 -8.515625 C 8.582031 -8.171875 8.617188 -7.695312 8.765625 -7.09375 C 8.953125 -6.40625 9.28125 -5.898438 9.75 -5.578125 C 10.21875 -5.265625 10.828125 -5.078125 11.578125 -5.015625 C 11.785156 -5.015625 12.5625 -5.003906 13.90625 -4.984375 C 15.25 -4.972656 16.972656 -4.96875 19.078125 -4.96875 C 21.191406 -4.96875 23.546875 -4.96875 26.140625 -4.96875 C 28.734375 -4.96875 31.390625 -4.96875 34.109375 -4.96875 C 36.835938 -4.96875 39.484375 -4.972656 42.046875 -4.984375 C 44.609375 -5.003906 46.921875 -5.019531 48.984375 -5.03125 C 51.054688 -5.050781 52.722656 -5.066406 53.984375 -5.078125 C 55.253906 -5.097656 55.9375 -5.125 56.03125 -5.15625 C 56.445312 -5.269531 56.707031 -5.492188 56.8125 -5.828125 C 56.914062 -6.160156 56.863281 -6.492188 56.65625 -6.828125 C 56.175781 -7.546875 55.597656 -8.128906 54.921875 -8.578125 C 54.242188 -9.035156 53.523438 -9.445312 52.765625 -9.8125 C 51.566406 -10.382812 49.941406 -10.957031 47.890625 -11.53125 C 45.835938 -12.101562 43.515625 -12.691406 40.921875 -13.296875 C 38.328125 -13.898438 35.585938 -14.515625 32.703125 -15.140625 C 29.828125 -15.773438 26.957031 -16.425781 24.09375 -17.09375 C 21.238281 -17.757812 18.535156 -18.4375 15.984375 -19.125 C 13.429688 -19.820312 11.175781 -20.546875 9.21875 -21.296875 C 8.613281 -21.535156 8.023438 -21.820312 7.453125 -22.15625 C 6.890625 -22.488281 6.347656 -22.863281 5.828125 -23.28125 C 5.109375 -23.882812 4.628906 -24.460938 4.390625 -25.015625 C 4.148438 -25.578125 3.953125 -26.296875 3.796875 -27.171875 C 3.679688 -27.867188 3.660156 -28.640625 3.734375 -29.484375 C 3.804688 -30.328125 3.992188 -31.082031 4.296875 -31.75 C 4.742188 -32.738281 5.539062 -33.457031 6.6875 -33.90625 C 7.65625 -34.300781 8.628906 -34.472656 9.609375 -34.421875 C 10.585938 -34.378906 11.578125 -34.375 12.578125 -34.40625 L 55.84375 -34.40625 C 57.082031 -34.4375 58.242188 -34.128906 59.328125 -33.484375 C 60.410156 -32.835938 61.238281 -31.957031 61.8125 -30.84375 C 62.207031 -30.050781 62.488281 -29.253906 62.65625 -28.453125 C 62.820312 -27.660156 62.90625 -26.960938 62.90625 -26.359375 C 62.875 -25.972656 62.914062 -25.671875 63.03125 -25.453125 C 63.15625 -25.242188 63.398438 -25.066406 63.765625 -24.921875 Z M 63.765625 -24.921875 "/></g></g></g></svg>